<svg id="Layer_1" data-name="Layer 1" xmlns="http://www.w3.org/2000/svg" xmlns:xlink="http://www.w3.org/1999/xlink" viewBox="0 0 1000 1000"><defs><linearGradient id="linear-gradient-6" x1="292.94" y1="680.19" x2="292.94" y2="639.84" xlink:href="#linear-gradient-2"/><linearGradient id="linear-gradient-12" x1="-203.72" y1="680.41" x2="-203.72" y2="641.13" xlink:href="#linear-gradient-2"/><linearGradient id="linear-gradient-2" x1="595.3" y1="680.19" x2="595.3" y2="639.84" gradientTransform="matrix(1 0 0 -1 316.89 1518.81)" gradientUnits="userSpaceOnUse"><stop offset="0" stop-color="#191b21"/><stop offset=".22" stop-color="#404351"/><stop offset=".43" stop-color="#62667c"/><stop offset=".6" stop-color="#777c96"/><stop offset=".7" stop-color="#7f84a0"/><stop offset=".75" stop-color="#7b7f9b"/><stop offset=".82" stop-color="#70738c"/><stop offset=".88" stop-color="#5e6075"/><stop offset=".95" stop-color="#454454"/><stop offset="1" stop-color="#302d39"/></linearGradient><linearGradient id="linear-gradient-3" x1="546.91" y1="680.19" x2="546.91" y2="639.84" xlink:href="#linear-gradient-2"/><linearGradient id="linear-gradient-4" x1="462.25" y1="680.19" x2="462.25" y2="639.84" xlink:href="#linear-gradient-2"/><linearGradient id="linear-gradient-5" x1="377.6" y1="680.19" x2="377.6" y2="639.84" xlink:href="#linear-gradient-2"/><linearGradient id="linear-gradient" x1="183.25" y1="686.72" x2="183.25" y2="645.64" gradientTransform="matrix(1 0 0 -1 316.89 1518.81)" gradientUnits="userSpaceOnUse"><stop offset="0" stop-color="#45474b"/><stop offset=".33" stop-color="#606167" stop-opacity=".98"/><stop offset=".53" stop-color="#6b6c72" stop-opacity=".97"/><stop offset=".68" stop-color="#65666c" stop-opacity=".97"/><stop offset=".86" stop-color="#56585d" stop-opacity=".99"/><stop offset="1" stop-color="#45474b"/></linearGradient><linearGradient id="linear-gradient-7" x1="208.29" y1="680.19" x2="208.29" y2="639.84" xlink:href="#linear-gradient-2"/><linearGradient id="linear-gradient-8" x1="123.63" y1="680.19" x2="123.63" y2="639.84" xlink:href="#linear-gradient-2"/><linearGradient id="linear-gradient-9" x1="38.98" y1="680.19" x2="38.98" y2="639.84" xlink:href="#linear-gradient-2"/><linearGradient id="linear-gradient-10" x1="-45.68" y1="680.19" x2="-45.68" y2="639.84" xlink:href="#linear-gradient-2"/><linearGradient id="linear-gradient-11" x1="-130.33" y1="680.19" x2="-130.33" y2="639.84" xlink:href="#linear-gradient-2"/><style>.cls-4,.cls-7,.cls-9{stroke-width:0}.cls-4{fill:#131417}.cls-7{fill:#45474b}.cls-9{fill:#f4ce14}</style></defs><text transform="translate(67.62 955.74)" style="font-family:Inter-ExtraBold,Inter;font-size:79.93px;font-variation-settings:'wght' 800,'slnt' 0;font-weight:700;fill:#45474b"><tspan x="0" y="0">Ik</tspan><tspan x="70.33" y="0" style="letter-spacing:-.02em">r</tspan><tspan x="102.35" y="0">am Steel Industries</tspan></text><path d="m264.56 126.67-99.68 53.43v469.22l77.68-82.17 141.89 22.45V160.79l-119.89-34.12zm49.43 428.41-23.07-6.78v-20.23l23.47 8.09-.4 18.92zm0-46.13-23.07-6.78v-20.23l23.47 8.09-.4 18.92zm0-46.12-23.07-6.78v-20.23l23.47 8.09-.4 18.92zm0-46.13-23.07-6.78v-20.23l23.47 8.09-.4 18.92zm0-46.13-23.07-6.78v-20.23l23.47 8.09-.4 18.92zm0-46.13-23.07-6.78v-20.23l23.47 8.09-.4 18.92zm0-46.13-23.07-6.78V251.3l23.47 8.09-.4 18.92zm0-46.13-23.07-6.78v-20.23l23.47 8.09-.4 18.92zm0-46.13-23.07-6.78v-20.23l23.47 8.09-.4 18.92zm48.13 382.54-23.07-6.78v-20.23l23.47 8.09-.4 18.92zm0-46.13-23.07-6.78v-20.23l23.47 8.09-.4 18.92zm0-46.13-23.07-6.78v-20.23l23.47 8.09-.4 18.92zm0-46.13-23.07-6.78v-20.23l23.47 8.09-.4 18.92zm0-46.13-23.07-6.78v-20.23l23.47 8.09-.4 18.92zm0-46.13-23.07-6.78v-20.23l23.47 8.09-.4 18.92zm0-46.13-23.07-6.78V264.8l23.47 8.09-.4 18.92zm0-46.13-23.07-6.78v-20.23l23.47 8.09-.4 18.92zm0-46.13-23.07-6.78v-20.23l23.47 8.09-.4 18.92z" style="fill:#45474b;opacity:.97;stroke-width:0"/><path class="cls-7" d="m614.95 205.51 136.83-39 81.21 39v72.8l-86.32-37.63-131.72 37.63v-72.8zM614.95 337.25l136.83-39 81.21 39v72.8l-86.32-37.63-131.72 37.63v-72.8zM700.63 518.18l-15.99-16.63-69.69-18.54V471.5l140.03-41.3 78.01 40.02v71.36l-81.21-38.75-51.15 15.35zM745.39 561.66l87.6 92.07v-53.71l-79.29-38.36h-8.31z"/><g><path class="cls-9" d="M209.96 728.35h28.42v28.42h-28.42zM243.76 728.35h28.42v28.42h-28.42zM243.76 762.09h28.42v28.42h-28.42zM209.96 762.09h28.42v28.42h-28.42zM559.04 748.78h19.08v19.08h-19.08zM581.74 748.78h19.08v19.08h-19.08zM581.74 771.43h19.08v19.08h-19.08zM559.04 771.43h19.08v19.08h-19.08z"/><g><path class="cls-9" d="M498.9 590.25h28.42v28.42H498.9zM532.71 590.25h28.42v28.42h-28.42zM532.71 623.99h28.42v28.42h-28.42zM498.9 623.99h28.42v28.42H498.9z"/></g><path class="cls-9" d="m614.95 80.39-22.8-11.08v407.02l22.8 6.68V80.39zM569.13 57.38l-22.17-11.09v421.16l22.17 4.27V57.38zM930.19 790.51 673.78 522.46l-141.95-36.57-107.42 135.88-172-28.14L67.62 790.51h33.25l149.62-162.99 150.9 162.99h106.14l74.21-78.58 74.14 78.58h30.69L581.74 676.76l-92.75 10.87-47.96-51.16 89.52-114.01 254.49 268.05h145.15z"/><path class="cls-9" d="M498.94 20.72 384.45 78.69V589.6l27.82 4.03L523.1 457.22V32.65l-24.16-11.94zM436.5 209.84l7.63-2.79c.6-.22 1.05-.5 1.35-.83.3-.33.45-.84.45-1.54v-49.59c0-.66-.17-1.16-.52-1.49-.35-.33-.77-.58-1.28-.73l-7.63-2.79v-4.07h34.58v4.07l-7.63 2.79c-.51.19-.94.45-1.3.78-.36.33-.54.81-.54 1.44v49.59c0 .69.18 1.22.54 1.56.36.35.8.62 1.3.81l7.63 2.79v4.07H436.5v-4.07zm34.58 153.36-7.63 2.79c-.51.19-.94.45-1.3.78-.36.33-.54.81-.54 1.44v49.59c0 .69.18 1.22.54 1.56.36.35.8.62 1.3.81l7.63 2.79v4.07H436.5v-4.07l7.63-2.79c.6-.22 1.05-.5 1.35-.83.3-.33.45-.84.45-1.54v-49.59c0-.66-.17-1.16-.52-1.49-.35-.33-.77-.58-1.28-.73l-7.63-2.79v-4.07h34.58v4.07zm7.18-52.45c-2.15 3.39-5.44 6.13-9.88 8.22-4.44 2.08-10.06 3.13-16.89 3.13-2.34 0-4.94-.21-7.81-.64-2.87-.43-5.75-.97-8.64-1.63s-5.58-1.34-8.08-2.04l-.28-19.94h6.3l2.79 9.05c.16.51.47.97.92 1.4.46.43.86.77 1.21 1.02 1.1.69 2.5 1.41 4.19 2.15 1.69.74 3.45 1.37 5.28 1.87 1.83.51 3.47.76 4.93.76 4.04 0 7.33-.89 9.88-2.68 2.54-1.78 3.81-4.14 3.81-7.08 0-2.68-.81-4.66-2.42-5.92-1.61-1.26-3.84-2.45-6.68-3.55a75.494 75.494 0 0 0-7.93-2.6 72.81 72.81 0 0 1-7.7-2.51c-3.92-1.52-7.06-3.76-9.43-6.73-2.37-2.97-3.55-6.71-3.55-11.23 0-4.2 1.24-7.85 3.72-10.96 2.48-3.11 5.73-5.53 9.76-7.25 4.03-1.72 8.36-2.58 13-2.58 2.68 0 5.42.16 8.19.47 2.78.32 5.44.7 7.98 1.16 2.54.46 4.78.92 6.7 1.4v19.23h-6.25l-2.7-8.53c-.16-.47-.46-.92-.9-1.35a8.46 8.46 0 0 0-1.23-1.02c-.6-.38-1.57-.83-2.91-1.35-1.34-.52-2.8-.99-4.38-1.4-1.58-.41-3.06-.62-4.45-.62-3.85 0-6.77.88-8.74 2.63-1.97 1.75-2.96 3.66-2.96 5.71 0 2.21.68 4.1 2.04 5.66 1.36 1.56 3.88 2.96 7.58 4.19 2.53.85 5 1.63 7.44 2.32 2.43.7 5.08 1.61 7.96 2.75 2.37.95 4.56 2.16 6.58 3.62 2.02 1.47 3.65 3.33 4.9 5.59 1.25 2.26 1.87 5.03 1.87 8.31 0 3.92-1.07 7.57-3.22 10.96z"/></g><g><path style="fill:url(#linear-gradient);stroke-width:0" d="M67.3 845.83v-13.74h865.69v41.08H67.3v-27.34z"/><path class="cls-4" d="M933.08 865.9c-2.58 1.54-5.75 3.35-6.57 3.75-1.33.64-12.86 3.21-12.86 3.21l-9.53.64-12.81-.32s20.27-1.7 41.76-13.9v6.63z"/><path d="M933.08 868.59c-.12.06-.23.12-.35.18-21.01 10.41-41.41 4.39-41.41 4.39 12.6.04 25.69-2.71 35.01-7.28 2.56-1.26 4.77-2.58 6.75-3.97v6.67z" style="fill:url(#linear-gradient-2);stroke-width:0"/><path class="cls-4" d="M920.94 832.04s-28.91 2.74-55.07 23.45l3.92-7.89s8.42-7.17 9.09-7.38 7.76-3.96 8.42-4.28 11.97-3.42 11.97-3.42l14.19-1.18 7.47.7zM806.66 873.17s27.9-2.33 52.94-21.22v3.54s-6.66 7.41-7.77 8.27-8.65 5.24-9.98 5.88-12.86 3.21-12.86 3.21l-9.53.64-12.81-.32z"/><path d="M885.92 839.4c-7.9 3.87-12.47 8.42-17.24 13.25l-.7.7-.77.78c-4.95 5.02-10.13 10.18-19.15 14.65-21.01 10.41-41.41 4.39-41.41 4.39 12.6.04 25.69-2.71 35.01-7.28 7.9-3.87 12.47-8.42 17.24-13.25l.7-.7.77-.78c4.95-5.02 10.13-10.18 19.15-14.65 21.01-10.41 41.41-4.48 41.41-4.48-12.6-.04-25.69 2.8-35.01 7.36z" style="fill:url(#linear-gradient-3);stroke-width:0"/><path class="cls-4" d="M836.28 832.04s-28.91 2.74-55.07 23.45l3.92-7.89s8.42-7.17 9.09-7.38 7.76-3.96 8.42-4.28 11.97-3.42 11.97-3.42l14.19-1.18 7.47.7zM722 873.17s27.9-2.33 52.94-21.22v3.54s-6.66 7.41-7.77 8.27-8.65 5.24-9.98 5.88-12.86 3.21-12.86 3.21l-9.53.64-12.81-.32z"/><path d="M801.27 839.4c-7.9 3.87-12.47 8.42-17.24 13.25l-.7.7-.77.78c-4.95 5.02-10.13 10.18-19.15 14.65-21.01 10.41-41.41 4.39-41.41 4.39 12.6.04 25.69-2.71 35.01-7.28 7.9-3.87 12.47-8.42 17.24-13.25l.7-.7.77-.78c4.95-5.02 10.13-10.18 19.15-14.65 21.01-10.41 41.41-4.48 41.41-4.48-12.6-.04-25.69 2.8-35.01 7.36z" style="fill:url(#linear-gradient-4);stroke-width:0"/><path class="cls-4" d="M751.63 832.04s-28.91 2.74-55.07 23.45l3.92-7.89s8.42-7.17 9.09-7.38 7.76-3.96 8.42-4.28 11.97-3.42 11.97-3.42l14.19-1.18 7.47.7zM637.35 873.17s27.9-2.33 52.94-21.22v3.54s-6.66 7.41-7.77 8.27-8.65 5.24-9.98 5.88c-1.33.64-12.86 3.21-12.86 3.21l-9.53.64-12.81-.32z"/><path d="M716.61 839.4c-7.9 3.87-12.47 8.42-17.24 13.25l-.7.7-.77.78c-4.95 5.02-10.13 10.18-19.15 14.65-21.01 10.41-41.41 4.39-41.41 4.39 12.6.04 25.69-2.71 35.01-7.28 7.9-3.87 12.47-8.42 17.24-13.25l.7-.7.77-.78c4.95-5.02 10.13-10.18 19.15-14.65 21.01-10.41 41.41-4.48 41.41-4.48-12.6-.04-25.69 2.8-35.01 7.36z" style="fill:url(#linear-gradient-5);stroke-width:0"/><path class="cls-4" d="M666.97 832.04s-28.91 2.74-55.07 23.45l3.92-7.89s8.42-7.17 9.09-7.38 7.76-3.96 8.42-4.28 11.97-3.42 11.97-3.42l14.19-1.18 7.47.7zM552.7 873.17s27.9-2.33 52.94-21.22v3.54s-6.66 7.41-7.77 8.27-8.65 5.24-9.98 5.88-12.86 3.21-12.86 3.21l-9.53.64-12.81-.32z"/><path d="M631.96 839.4c-7.9 3.87-12.47 8.42-17.24 13.25l-.7.7-.77.78c-4.95 5.02-10.13 10.18-19.15 14.65-21.01 10.41-41.41 4.39-41.41 4.39 12.6.04 25.69-2.71 35.01-7.28 7.9-3.87 12.47-8.42 17.24-13.25l.7-.7.77-.78c4.95-5.02 10.13-10.18 19.15-14.65 21.01-10.41 41.41-4.48 41.41-4.48-12.6-.04-25.69 2.8-35.01 7.36z" style="fill:url(#linear-gradient-6);stroke-width:0"/><g><path class="cls-4" d="M582.32 832.04s-28.91 2.74-55.07 23.45l3.92-7.89s8.42-7.17 9.09-7.38 7.76-3.96 8.42-4.28 11.97-3.42 11.97-3.42l14.19-1.18 7.47.7zM468.04 873.17s27.9-2.33 52.94-21.22v3.54s-6.66 7.41-7.77 8.27-8.65 5.24-9.98 5.88c-1.33.64-12.86 3.21-12.86 3.21l-9.53.64-12.81-.32z"/><path d="M547.3 839.4c-7.9 3.87-12.47 8.42-17.24 13.25l-.7.7-.77.78c-4.95 5.02-10.13 10.18-19.15 14.65-21.01 10.41-41.41 4.39-41.41 4.39 12.6.04 25.69-2.71 35.01-7.28 7.9-3.87 12.47-8.42 17.24-13.25l.7-.7.77-.78c4.95-5.02 10.13-10.18 19.15-14.65 21.01-10.41 41.41-4.48 41.41-4.48-12.6-.04-25.69 2.8-35.01 7.36z" style="fill:url(#linear-gradient-7);stroke-width:0"/></g><g><path class="cls-4" d="M497.66 832.04s-28.91 2.74-55.07 23.45l3.92-7.89s8.42-7.17 9.09-7.38 7.76-3.96 8.42-4.28 11.97-3.42 11.97-3.42l14.19-1.18 7.47.7zM383.39 873.17s27.9-2.33 52.94-21.22v3.54s-6.66 7.41-7.77 8.27-8.65 5.24-9.98 5.88c-1.33.64-12.86 3.21-12.86 3.21l-9.53.64-12.81-.32z"/><path d="M462.65 839.4c-7.9 3.87-12.47 8.42-17.24 13.25l-.7.7-.77.78c-4.95 5.02-10.13 10.18-19.15 14.65-21.01 10.41-41.41 4.39-41.41 4.39 12.6.04 25.69-2.71 35.01-7.28 7.9-3.87 12.47-8.42 17.24-13.25l.7-.7.77-.78c4.95-5.02 10.13-10.18 19.15-14.65 21.01-10.41 41.41-4.48 41.41-4.48-12.6-.04-25.69 2.8-35.01 7.36z" style="fill:url(#linear-gradient-8);stroke-width:0"/></g><g><path class="cls-4" d="M413.01 832.04s-28.91 2.74-55.07 23.45l3.92-7.89s8.42-7.17 9.09-7.38 7.76-3.96 8.42-4.28 11.97-3.42 11.97-3.42l14.19-1.18 7.47.7zM298.73 873.17s27.9-2.33 52.94-21.22v3.54s-6.66 7.41-7.77 8.27-8.65 5.24-9.98 5.88c-1.33.64-12.86 3.21-12.86 3.21l-9.53.64-12.81-.32z"/><path d="M377.99 839.4c-7.9 3.87-12.47 8.42-17.24 13.25l-.7.7-.77.78c-4.95 5.02-10.13 10.18-19.15 14.65-21.01 10.41-41.41 4.39-41.41 4.39 12.6.04 25.69-2.71 35.01-7.28 7.9-3.87 12.47-8.42 17.24-13.25l.7-.7.77-.78c4.95-5.02 10.13-10.18 19.15-14.65 21.01-10.41 41.41-4.48 41.41-4.48-12.6-.04-25.69 2.8-35.01 7.36z" style="fill:url(#linear-gradient-9);stroke-width:0"/></g><g><path class="cls-4" d="M328.35 832.04s-28.91 2.74-55.07 23.45l3.92-7.89s8.42-7.17 9.09-7.38 7.76-3.96 8.42-4.28 11.97-3.42 11.97-3.42l14.19-1.18 7.47.7zM214.08 873.17s27.9-2.33 52.94-21.22v3.54s-6.66 7.41-7.77 8.27-8.65 5.24-9.98 5.88-12.86 3.21-12.86 3.21l-9.53.64-12.81-.32z"/><path d="M293.34 839.4c-7.9 3.87-12.47 8.42-17.24 13.25l-.7.7-.77.78c-4.95 5.02-10.13 10.18-19.15 14.65-21.01 10.41-41.41 4.39-41.41 4.39 12.6.04 25.69-2.71 35.01-7.28 7.9-3.87 12.47-8.42 17.24-13.25l.7-.7.77-.78c4.95-5.02 10.13-10.18 19.15-14.65 21.01-10.41 41.41-4.48 41.41-4.48-12.6-.04-25.69 2.8-35.01 7.36z" style="fill:url(#linear-gradient-10);stroke-width:0"/></g><g><path class="cls-4" d="M243.7 832.04s-28.91 2.74-55.07 23.45l3.92-7.89s8.42-7.17 9.09-7.38 7.76-3.96 8.42-4.28 11.97-3.42 11.97-3.42l14.19-1.18 7.47.7zM129.42 873.17s27.9-2.33 52.94-21.22v3.54s-6.66 7.41-7.77 8.27-8.65 5.24-9.98 5.88c-1.33.64-12.86 3.21-12.86 3.21l-9.53.64-12.81-.32z"/><path d="M208.69 839.4c-7.9 3.87-12.47 8.42-17.24 13.25l-.7.7-.77.78c-4.95 5.02-10.13 10.18-19.15 14.65-21.01 10.41-41.41 4.39-41.41 4.39 12.6.04 25.69-2.71 35.01-7.28 7.9-3.87 12.47-8.42 17.24-13.25l.7-.7.77-.78c4.95-5.02 10.13-10.18 19.15-14.65 21.01-10.41 41.41-4.48 41.41-4.48-12.6-.04-25.69 2.8-35.01 7.36z" style="fill:url(#linear-gradient-11);stroke-width:0"/></g><g><path class="cls-4" d="M159.04 832.04s-28.91 2.74-55.07 23.45l3.92-7.89s8.42-7.17 9.09-7.38 7.76-3.96 8.42-4.28 11.97-3.42 11.97-3.42l14.19-1.18 7.47.7zM67.3 867.91c9.17-3.15 20.03-8.13 30.41-15.96v3.54s-6.66 7.41-7.77 8.27-8.65 5.24-9.98 5.88c-1.23.59-11.19 2.84-12.67 3.17v-4.9z"/><path d="M67.3 870.37c4.57-1.17 8.82-2.68 12.48-4.48 7.9-3.87 12.47-8.42 17.24-13.25l.7-.7.77-.78c4.95-5.02 10.13-10.18 19.15-14.65 21.01-10.41 41.41-4.48 41.41-4.48-12.6-.04-25.69 2.8-35.01 7.36-7.9 3.87-12.47 8.42-17.24 13.25l-.7.7-.77.78c-4.95 5.02-10.13 10.18-19.15 14.65a57.525 57.525 0 0 1-12.13 4.39c-2.32.56-6.75-2.8-6.75-2.8z" style="stroke-width:0;fill:url(#linear-gradient-12)"/></g><ellipse class="cls-7" cx="932.7" cy="852.63" rx="8.7" ry="20.54"/><ellipse class="cls-7" cx="67.3" cy="852.63" rx="8.7" ry="20.54"/></g></svg>