<?xml version="1.0" encoding="UTF-8"?>
<svg id="Layer_1" data-name="Layer 1" xmlns="http://www.w3.org/2000/svg" xmlns:xlink="http://www.w3.org/1999/xlink" viewBox="0 0 100 100">
  <defs>
    <style>
      .cls-1 {
        fill: url(#linear-gradient-38);
      }

      .cls-1, .cls-2, .cls-3, .cls-4, .cls-5, .cls-6, .cls-7, .cls-8, .cls-9, .cls-10, .cls-11, .cls-12, .cls-13, .cls-14, .cls-15, .cls-16, .cls-17, .cls-18, .cls-19, .cls-20, .cls-21, .cls-22, .cls-23, .cls-24, .cls-25, .cls-26, .cls-27, .cls-28, .cls-29, .cls-30, .cls-31, .cls-32, .cls-33, .cls-34, .cls-35, .cls-36, .cls-37, .cls-38, .cls-39, .cls-40, .cls-41 {
        stroke-width: 0px;
      }

      .cls-2 {
        fill: url(#linear-gradient-12);
      }

      .cls-3 {
        fill: url(#linear-gradient-17);
      }

      .cls-4 {
        fill: url(#linear-gradient-19);
      }

      .cls-5 {
        fill: url(#linear-gradient-33);
      }

      .cls-6 {
        fill: url(#linear-gradient);
      }

      .cls-7 {
        fill: url(#linear-gradient-21);
      }

      .cls-8 {
        fill: url(#linear-gradient-6);
      }

      .cls-9 {
        fill: #131417;
      }

      .cls-10 {
        fill: url(#linear-gradient-15);
      }

      .cls-11 {
        fill: url(#linear-gradient-11);
      }

      .cls-12 {
        fill: url(#linear-gradient-5);
      }

      .cls-42 {
        filter: url(#drop-shadow-1);
      }

      .cls-13 {
        fill: url(#linear-gradient-31);
      }

      .cls-14 {
        fill: url(#linear-gradient-34);
      }

      .cls-15 {
        fill: url(#linear-gradient-40);
      }

      .cls-16 {
        fill: url(#linear-gradient-13);
      }

      .cls-17 {
        fill: url(#linear-gradient-23);
      }

      .cls-18 {
        fill: url(#linear-gradient-25);
      }

      .cls-19 {
        fill: url(#linear-gradient-16);
      }

      .cls-20 {
        fill: url(#linear-gradient-22);
      }

      .cls-21 {
        fill: url(#linear-gradient-35);
      }

      .cls-22 {
        fill: url(#linear-gradient-32);
      }

      .cls-23 {
        fill: url(#linear-gradient-20);
      }

      .cls-24 {
        fill: url(#linear-gradient-14);
      }

      .cls-25 {
        fill: url(#linear-gradient-2);
      }

      .cls-26 {
        fill: url(#linear-gradient-7);
      }

      .cls-27 {
        fill: url(#linear-gradient-39);
      }

      .cls-28 {
        fill: url(#linear-gradient-3);
      }

      .cls-29 {
        fill: url(#linear-gradient-9);
      }

      .cls-30 {
        fill: url(#linear-gradient-27);
      }

      .cls-31 {
        fill: url(#linear-gradient-36);
      }

      .cls-32 {
        fill: url(#linear-gradient-8);
      }

      .cls-33 {
        fill: url(#linear-gradient-24);
      }

      .cls-34 {
        fill: url(#linear-gradient-26);
      }

      .cls-35 {
        fill: url(#linear-gradient-18);
      }

      .cls-36 {
        fill: url(#linear-gradient-30);
      }

      .cls-37 {
        fill: url(#linear-gradient-29);
      }

      .cls-38 {
        fill: url(#linear-gradient-28);
      }

      .cls-39 {
        fill: url(#linear-gradient-10);
      }

      .cls-40 {
        fill: url(#linear-gradient-4);
      }

      .cls-41 {
        fill: url(#linear-gradient-37);
      }
    </style>
    <linearGradient id="linear-gradient" x1="-375.58" y1="230.66" x2="-375.58" y2="220.53" gradientTransform="translate(275.74 -325.57) rotate(-90) scale(1 -1)" gradientUnits="userSpaceOnUse">
      <stop offset="0" stop-color="#45474b"/>
      <stop offset=".04" stop-color="#494c52"/>
      <stop offset=".34" stop-color="#666a7c"/>
      <stop offset=".56" stop-color="#787d96"/>
      <stop offset=".7" stop-color="#7f84a0"/>
      <stop offset=".76" stop-color="#7b809b"/>
      <stop offset=".83" stop-color="#71768c"/>
      <stop offset=".9" stop-color="#616575"/>
      <stop offset=".98" stop-color="#4b4e54"/>
      <stop offset="1" stop-color="#45474b"/>
    </linearGradient>
    <linearGradient id="linear-gradient-2" x1="-332.75" y1="228.96" x2="-332.75" y2="218.58" gradientTransform="translate(275.74 -325.57) rotate(-90) scale(1 -1)" gradientUnits="userSpaceOnUse">
      <stop offset="0" stop-color="#191b21"/>
      <stop offset=".22" stop-color="#404351"/>
      <stop offset=".43" stop-color="#62667c"/>
      <stop offset=".6" stop-color="#777c96"/>
      <stop offset=".7" stop-color="#7f84a0"/>
      <stop offset=".75" stop-color="#7b7f9b"/>
      <stop offset=".82" stop-color="#70738c"/>
      <stop offset=".88" stop-color="#5e6075"/>
      <stop offset=".95" stop-color="#454454"/>
      <stop offset="1" stop-color="#302d39"/>
    </linearGradient>
    <linearGradient id="linear-gradient-3" x1="-343.85" y1="228.96" x2="-343.85" y2="218.58" xlink:href="#linear-gradient-2"/>
    <linearGradient id="linear-gradient-4" x1="-354.95" y1="228.96" x2="-354.95" y2="218.58" xlink:href="#linear-gradient-2"/>
    <linearGradient id="linear-gradient-5" x1="-366.06" y1="228.96" x2="-366.06" y2="218.58" xlink:href="#linear-gradient-2"/>
    <linearGradient id="linear-gradient-6" x1="-377.16" y1="228.96" x2="-377.16" y2="218.58" xlink:href="#linear-gradient-2"/>
    <linearGradient id="linear-gradient-7" x1="-388.26" y1="228.96" x2="-388.26" y2="218.58" xlink:href="#linear-gradient-2"/>
    <linearGradient id="linear-gradient-8" x1="-399.36" y1="228.96" x2="-399.36" y2="218.58" xlink:href="#linear-gradient-2"/>
    <linearGradient id="linear-gradient-9" x1="-410.47" y1="228.96" x2="-410.47" y2="218.58" xlink:href="#linear-gradient-2"/>
    <linearGradient id="linear-gradient-10" x1="-421.57" y1="228.96" x2="-421.57" y2="218.58" xlink:href="#linear-gradient-2"/>
    <linearGradient id="linear-gradient-11" x1="-332.75" y1="-906.53" x2="-332.75" y2="-916.91" gradientTransform="translate(960.06 -325.57) rotate(-90)" xlink:href="#linear-gradient-2"/>
    <linearGradient id="linear-gradient-12" x1="-343.85" y1="-906.53" x2="-343.85" y2="-916.91" gradientTransform="translate(960.06 -325.57) rotate(-90)" xlink:href="#linear-gradient-2"/>
    <linearGradient id="linear-gradient-13" x1="-354.95" y1="-906.53" x2="-354.95" y2="-916.91" gradientTransform="translate(960.06 -325.57) rotate(-90)" xlink:href="#linear-gradient-2"/>
    <linearGradient id="linear-gradient-14" x1="-366.06" y1="-906.53" x2="-366.06" y2="-916.91" gradientTransform="translate(960.06 -325.57) rotate(-90)" xlink:href="#linear-gradient-2"/>
    <linearGradient id="linear-gradient-15" x1="-377.16" y1="-906.53" x2="-377.16" y2="-916.91" gradientTransform="translate(960.06 -325.57) rotate(-90)" xlink:href="#linear-gradient-2"/>
    <linearGradient id="linear-gradient-16" x1="-388.26" y1="-906.53" x2="-388.26" y2="-916.91" gradientTransform="translate(960.06 -325.57) rotate(-90)" xlink:href="#linear-gradient-2"/>
    <linearGradient id="linear-gradient-17" x1="-399.36" y1="-906.53" x2="-399.36" y2="-916.91" gradientTransform="translate(960.06 -325.57) rotate(-90)" xlink:href="#linear-gradient-2"/>
    <linearGradient id="linear-gradient-18" x1="-410.47" y1="-906.53" x2="-410.47" y2="-916.91" gradientTransform="translate(960.06 -325.57) rotate(-90)" xlink:href="#linear-gradient-2"/>
    <linearGradient id="linear-gradient-19" x1="-421.57" y1="-906.53" x2="-421.57" y2="-916.91" gradientTransform="translate(960.06 -325.57) rotate(-90)" xlink:href="#linear-gradient-2"/>
    <linearGradient id="linear-gradient-20" x1="-375.58" y1="226.16" x2="-375.58" y2="225.02" gradientTransform="translate(275.74 -325.57) rotate(-90) scale(1 -1)" gradientUnits="userSpaceOnUse">
      <stop offset="0" stop-color="#191b21"/>
      <stop offset=".61" stop-color="#443d4e"/>
      <stop offset="1" stop-color="#615c74"/>
    </linearGradient>
    <filter id="drop-shadow-1" filterUnits="userSpaceOnUse">
      <feOffset dx="0" dy="1"/>
      <feGaussianBlur result="blur" stdDeviation=".5"/>
      <feFlood flood-color="#231f20" flood-opacity=".2"/>
      <feComposite in2="blur" operator="in"/>
      <feComposite in="SourceGraphic"/>
    </filter>
    <linearGradient id="linear-gradient-21" x1="-104.2" y1="237.38" x2="-104.2" y2="227.24" gradientTransform="translate(-54.05 -182.3) rotate(-180) scale(1 -1)" xlink:href="#linear-gradient"/>
    <linearGradient id="linear-gradient-22" x1="-61.36" y1="235.68" x2="-61.36" y2="225.3" gradientTransform="translate(-54.05 -182.3) rotate(-180) scale(1 -1)" xlink:href="#linear-gradient-2"/>
    <linearGradient id="linear-gradient-23" x1="-72.47" y1="235.68" x2="-72.47" y2="225.3" gradientTransform="translate(-54.05 -182.3) rotate(-180) scale(1 -1)" xlink:href="#linear-gradient-2"/>
    <linearGradient id="linear-gradient-24" x1="-83.57" y1="235.68" x2="-83.57" y2="225.3" gradientTransform="translate(-54.05 -182.3) rotate(-180) scale(1 -1)" xlink:href="#linear-gradient-2"/>
    <linearGradient id="linear-gradient-25" x1="-94.67" y1="235.68" x2="-94.67" y2="225.3" gradientTransform="translate(-54.05 -182.3) rotate(-180) scale(1 -1)" xlink:href="#linear-gradient-2"/>
    <linearGradient id="linear-gradient-26" x1="-105.78" y1="235.68" x2="-105.78" y2="225.3" gradientTransform="translate(-54.05 -182.3) rotate(-180) scale(1 -1)" xlink:href="#linear-gradient-2"/>
    <linearGradient id="linear-gradient-27" x1="-116.88" y1="235.68" x2="-116.88" y2="225.3" gradientTransform="translate(-54.05 -182.3) rotate(-180) scale(1 -1)" xlink:href="#linear-gradient-2"/>
    <linearGradient id="linear-gradient-28" x1="-127.98" y1="235.68" x2="-127.98" y2="225.3" gradientTransform="translate(-54.05 -182.3) rotate(-180) scale(1 -1)" xlink:href="#linear-gradient-2"/>
    <linearGradient id="linear-gradient-29" x1="-139.09" y1="235.68" x2="-139.09" y2="225.3" gradientTransform="translate(-54.05 -182.3) rotate(-180) scale(1 -1)" xlink:href="#linear-gradient-2"/>
    <linearGradient id="linear-gradient-30" x1="-150.19" y1="235.68" x2="-150.19" y2="225.3" gradientTransform="translate(-54.05 -182.3) rotate(-180) scale(1 -1)" xlink:href="#linear-gradient-2"/>
    <linearGradient id="linear-gradient-31" x1="-61.36" y1="-913.25" x2="-61.36" y2="-923.63" gradientTransform="translate(-54.05 -866.61) rotate(-180)" xlink:href="#linear-gradient-2"/>
    <linearGradient id="linear-gradient-32" x1="-72.47" y1="-913.25" x2="-72.47" y2="-923.63" gradientTransform="translate(-54.05 -866.61) rotate(-180)" xlink:href="#linear-gradient-2"/>
    <linearGradient id="linear-gradient-33" x1="-83.57" y1="-913.25" x2="-83.57" y2="-923.63" gradientTransform="translate(-54.05 -866.61) rotate(-180)" xlink:href="#linear-gradient-2"/>
    <linearGradient id="linear-gradient-34" x1="-94.67" y1="-913.25" x2="-94.67" y2="-923.63" gradientTransform="translate(-54.05 -866.61) rotate(-180)" xlink:href="#linear-gradient-2"/>
    <linearGradient id="linear-gradient-35" x1="-105.78" y1="-913.25" x2="-105.78" y2="-923.63" gradientTransform="translate(-54.05 -866.61) rotate(-180)" xlink:href="#linear-gradient-2"/>
    <linearGradient id="linear-gradient-36" x1="-116.88" y1="-913.25" x2="-116.88" y2="-923.63" gradientTransform="translate(-54.05 -866.61) rotate(-180)" xlink:href="#linear-gradient-2"/>
    <linearGradient id="linear-gradient-37" x1="-127.98" y1="-913.25" x2="-127.98" y2="-923.63" gradientTransform="translate(-54.05 -866.61) rotate(-180)" xlink:href="#linear-gradient-2"/>
    <linearGradient id="linear-gradient-38" x1="-139.09" y1="-913.25" x2="-139.09" y2="-923.63" gradientTransform="translate(-54.05 -866.61) rotate(-180)" xlink:href="#linear-gradient-2"/>
    <linearGradient id="linear-gradient-39" x1="-150.19" y1="-913.25" x2="-150.19" y2="-923.63" gradientTransform="translate(-54.05 -866.61) rotate(-180)" xlink:href="#linear-gradient-2"/>
    <linearGradient id="linear-gradient-40" x1="-104.2" y1="232.88" x2="-104.2" y2="231.74" gradientTransform="translate(-54.05 -182.3) rotate(-180) scale(1 -1)" xlink:href="#linear-gradient-20"/>
  </defs>
  <g>
    <rect class="cls-6" x="45.08" y="0" width="10.14" height="100"/>
    <g>
      <g>
        <path class="cls-9" d="M50.15,9.73v.42s-1.06-.27-1.06-.27c0,0-1.84-1.1-1.9-1.19s-1.02-1.02-1.1-1.1-.88-1.57-.88-1.57l-.3-1.86.18-.98s.62,3.32,5.07,6.56Z"/>
        <path class="cls-25" d="M50.15,9.9v1.28s-.15-.07-.15-.07c-1.29-.65-2.62-1.33-3.77-2.51-2.68-2.76-1.15-5.43-1.15-5.43,0,1.65.72,3.37,1.89,4.59.93.97,2.02,1.56,3.17,2.14Z"/>
      </g>
      <g>
        <path class="cls-9" d="M50.15,20.83v.42s-1.06-.27-1.06-.27c0,0-1.84-1.1-1.9-1.19s-1.02-1.02-1.1-1.1-.88-1.57-.88-1.57l-.3-1.86.18-.98s.62,3.32,5.07,6.56Z"/>
        <path class="cls-28" d="M50.15,21v1.28s-.15-.07-.15-.07c-1.29-.65-2.62-1.33-3.77-2.51-2.68-2.76-1.15-5.43-1.15-5.43,0,1.65.72,3.37,1.89,4.59.93.97,2.02,1.56,3.17,2.14Z"/>
      </g>
      <g>
        <path class="cls-9" d="M50.15,31.93v.42s-1.06-.27-1.06-.27c0,0-1.84-1.1-1.9-1.19s-1.02-1.02-1.1-1.1-.88-1.57-.88-1.57l-.3-1.86.18-.98s.62,3.32,5.07,6.56Z"/>
        <path class="cls-40" d="M50.15,32.11v1.28s-.15-.07-.15-.07c-1.29-.65-2.62-1.33-3.77-2.51-2.68-2.76-1.15-5.43-1.15-5.43,0,1.65.72,3.37,1.89,4.59.93.97,2.02,1.56,3.17,2.14Z"/>
      </g>
      <g>
        <path class="cls-9" d="M50.15,43.04v.42s-1.06-.27-1.06-.27c0,0-1.84-1.1-1.9-1.19s-1.02-1.02-1.1-1.1-.88-1.57-.88-1.57l-.3-1.86.18-.98s.62,3.32,5.07,6.56Z"/>
        <path class="cls-12" d="M50.15,43.21v1.28s-.15-.07-.15-.07c-1.29-.65-2.62-1.33-3.77-2.51-2.68-2.76-1.15-5.43-1.15-5.43,0,1.65.72,3.37,1.89,4.59.93.97,2.02,1.56,3.17,2.14Z"/>
      </g>
      <g>
        <path class="cls-9" d="M50.15,54.14v.42s-1.06-.27-1.06-.27c0,0-1.84-1.1-1.9-1.19s-1.02-1.02-1.1-1.1-.88-1.57-.88-1.57l-.3-1.86.18-.98s.62,3.32,5.07,6.56Z"/>
        <path class="cls-8" d="M50.15,54.31v1.28s-.15-.07-.15-.07c-1.29-.65-2.62-1.33-3.77-2.51-2.68-2.76-1.15-5.43-1.15-5.43,0,1.65.72,3.37,1.89,4.59.93.97,2.02,1.56,3.17,2.14Z"/>
      </g>
      <g>
        <path class="cls-9" d="M50.15,65.24v.42s-1.06-.27-1.06-.27c0,0-1.84-1.1-1.9-1.19s-1.02-1.02-1.1-1.1-.88-1.57-.88-1.57l-.3-1.86.18-.98s.62,3.32,5.07,6.56Z"/>
        <path class="cls-26" d="M50.15,65.42v1.28s-.15-.07-.15-.07c-1.29-.65-2.62-1.33-3.77-2.51-2.68-2.76-1.15-5.43-1.15-5.43,0,1.65.72,3.37,1.89,4.59.93.97,2.02,1.56,3.17,2.14Z"/>
      </g>
      <g>
        <path class="cls-9" d="M50.15,76.35v.42s-1.06-.27-1.06-.27c0,0-1.84-1.1-1.9-1.19s-1.02-1.02-1.1-1.1-.88-1.57-.88-1.57l-.3-1.86.18-.98s.62,3.32,5.07,6.56Z"/>
        <path class="cls-32" d="M50.15,76.52v1.28s-.15-.07-.15-.07c-1.29-.65-2.62-1.33-3.77-2.51-2.68-2.76-1.15-5.43-1.15-5.43,0,1.65.72,3.37,1.89,4.59.93.97,2.02,1.56,3.17,2.14Z"/>
      </g>
      <g>
        <path class="cls-9" d="M50.15,87.45v.42s-1.06-.27-1.06-.27c0,0-1.84-1.1-1.9-1.19s-1.02-1.02-1.1-1.1-.88-1.57-.88-1.57l-.3-1.86.18-.98s.62,3.32,5.07,6.56Z"/>
        <path class="cls-29" d="M50.15,87.62v1.28s-.15-.07-.15-.07c-1.29-.65-2.62-1.33-3.77-2.51-2.68-2.76-1.15-5.43-1.15-5.43,0,1.65.72,3.37,1.89,4.59.93.97,2.02,1.56,3.17,2.14Z"/>
      </g>
      <g>
        <path class="cls-9" d="M50.15,98.55v.42s-1.06-.27-1.06-.27c0,0-1.84-1.1-1.9-1.19s-1.02-1.02-1.1-1.1-.88-1.57-.88-1.57l-.3-1.86.18-.98s.62,3.32,5.07,6.56Z"/>
        <path class="cls-39" d="M50.15,98.73v1.28s-.15-.07-.15-.07c-1.29-.65-2.62-1.33-3.77-2.51-2.68-2.76-1.15-5.43-1.15-5.43,0,1.65.72,3.37,1.89,4.59.93.97,2.02,1.56,3.17,2.14Z"/>
      </g>
    </g>
    <g>
      <g>
        <path class="cls-9" d="M50.15,9.73v.42s1.06-.27,1.06-.27c0,0,1.84-1.1,1.9-1.19s1.02-1.02,1.1-1.1.88-1.57.88-1.57l.3-1.86-.18-.98s-.62,3.32-5.07,6.56Z"/>
        <path class="cls-11" d="M50.15,9.9v1.28s.15-.07.15-.07c1.29-.65,2.62-1.33,3.77-2.51,2.68-2.76,1.15-5.43,1.15-5.43,0,1.65-.72,3.37-1.89,4.59-.93.97-2.02,1.56-3.17,2.14Z"/>
      </g>
      <g>
        <path class="cls-9" d="M50.15,20.83v.42s1.06-.27,1.06-.27c0,0,1.84-1.1,1.9-1.19s1.02-1.02,1.1-1.1.88-1.57.88-1.57l.3-1.86-.18-.98s-.62,3.32-5.07,6.56Z"/>
        <path class="cls-2" d="M50.15,21v1.28s.15-.07.15-.07c1.29-.65,2.62-1.33,3.77-2.51,2.68-2.76,1.15-5.43,1.15-5.43,0,1.65-.72,3.37-1.89,4.59-.93.97-2.02,1.56-3.17,2.14Z"/>
      </g>
      <g>
        <path class="cls-9" d="M50.15,31.93v.42s1.06-.27,1.06-.27c0,0,1.84-1.1,1.9-1.19s1.02-1.02,1.1-1.1.88-1.57.88-1.57l.3-1.86-.18-.98s-.62,3.32-5.07,6.56Z"/>
        <path class="cls-16" d="M50.15,32.11v1.28s.15-.07.15-.07c1.29-.65,2.62-1.33,3.77-2.51,2.68-2.76,1.15-5.43,1.15-5.43,0,1.65-.72,3.37-1.89,4.59-.93.97-2.02,1.56-3.17,2.14Z"/>
      </g>
      <g>
        <path class="cls-9" d="M50.15,43.04v.42s1.06-.27,1.06-.27c0,0,1.84-1.1,1.9-1.19s1.02-1.02,1.1-1.1.88-1.57.88-1.57l.3-1.86-.18-.98s-.62,3.32-5.07,6.56Z"/>
        <path class="cls-24" d="M50.15,43.21v1.28s.15-.07.15-.07c1.29-.65,2.62-1.33,3.77-2.51,2.68-2.76,1.15-5.43,1.15-5.43,0,1.65-.72,3.37-1.89,4.59-.93.97-2.02,1.56-3.17,2.14Z"/>
      </g>
      <g>
        <path class="cls-9" d="M50.15,54.14v.42s1.06-.27,1.06-.27c0,0,1.84-1.1,1.9-1.19s1.02-1.02,1.1-1.1.88-1.57.88-1.57l.3-1.86-.18-.98s-.62,3.32-5.07,6.56Z"/>
        <path class="cls-10" d="M50.15,54.31v1.28s.15-.07.15-.07c1.29-.65,2.62-1.33,3.77-2.51,2.68-2.76,1.15-5.43,1.15-5.43,0,1.65-.72,3.37-1.89,4.59-.93.97-2.02,1.56-3.17,2.14Z"/>
      </g>
      <g>
        <path class="cls-9" d="M50.15,65.24v.42s1.06-.27,1.06-.27c0,0,1.84-1.1,1.9-1.19s1.02-1.02,1.1-1.1.88-1.57.88-1.57l.3-1.86-.18-.98s-.62,3.32-5.07,6.56Z"/>
        <path class="cls-19" d="M50.15,65.42v1.28s.15-.07.15-.07c1.29-.65,2.62-1.33,3.77-2.51,2.68-2.76,1.15-5.43,1.15-5.43,0,1.65-.72,3.37-1.89,4.59-.93.97-2.02,1.56-3.17,2.14Z"/>
      </g>
      <g>
        <path class="cls-9" d="M50.15,76.35v.42s1.06-.27,1.06-.27c0,0,1.84-1.1,1.9-1.19s1.02-1.02,1.1-1.1.88-1.57.88-1.57l.3-1.86-.18-.98s-.62,3.32-5.07,6.56Z"/>
        <path class="cls-3" d="M50.15,76.52v1.28s.15-.07.15-.07c1.29-.65,2.62-1.33,3.77-2.51,2.68-2.76,1.15-5.43,1.15-5.43,0,1.65-.72,3.37-1.89,4.59-.93.97-2.02,1.56-3.17,2.14Z"/>
      </g>
      <g>
        <path class="cls-9" d="M50.15,87.45v.42s1.06-.27,1.06-.27c0,0,1.84-1.1,1.9-1.19s1.02-1.02,1.1-1.1.88-1.57.88-1.57l.3-1.86-.18-.98s-.62,3.32-5.07,6.56Z"/>
        <path class="cls-35" d="M50.15,87.62v1.28s.15-.07.15-.07c1.29-.65,2.62-1.33,3.77-2.51,2.68-2.76,1.15-5.43,1.15-5.43,0,1.65-.72,3.37-1.89,4.59-.93.97-2.02,1.56-3.17,2.14Z"/>
      </g>
      <g>
        <path class="cls-9" d="M50.15,98.55v.42s1.06-.27,1.06-.27c0,0,1.84-1.1,1.9-1.19s1.02-1.02,1.1-1.1.88-1.57.88-1.57l.3-1.86-.18-.98s-.62,3.32-5.07,6.56Z"/>
        <path class="cls-4" d="M50.15,98.73v1.28s.15-.07.15-.07c1.29-.65,2.62-1.33,3.77-2.51,2.68-2.76,1.15-5.43,1.15-5.43,0,1.65-.72,3.37-1.89,4.59-.93.97-2.02,1.56-3.17,2.14Z"/>
      </g>
    </g>
    <rect class="cls-23" x="49.58" y="0" width="1.14" height="100"/>
    <rect class="cls-9" x="49.19" y="0" width=".39" height="100"/>
  </g>
  <g class="cls-42">
    <rect class="cls-7" x=".15" y="44.94" width="100" height="10.14"/>
    <g>
      <g>
        <path class="cls-9" d="M9.87,50.01h.42s-.27,1.06-.27,1.06c0,0-1.1,1.84-1.19,1.9s-1.02,1.02-1.1,1.1-1.57.88-1.57.88l-1.86.3-.98-.18s3.32-.62,6.56-5.07Z"/>
        <path class="cls-20" d="M10.04,50.01h1.28s-.07.15-.07.15c-.65,1.29-1.33,2.62-2.51,3.77-2.76,2.68-5.43,1.15-5.43,1.15,1.65,0,3.37-.72,4.59-1.89.97-.93,1.56-2.02,2.14-3.17Z"/>
      </g>
      <g>
        <path class="cls-9" d="M20.97,50.01h.42s-.27,1.06-.27,1.06c0,0-1.1,1.84-1.19,1.9s-1.02,1.02-1.1,1.1-1.57.88-1.57.88l-1.86.3-.98-.18s3.32-.62,6.56-5.07Z"/>
        <path class="cls-17" d="M21.15,50.01h1.28s-.07.15-.07.15c-.65,1.29-1.33,2.62-2.51,3.77-2.76,2.68-5.43,1.15-5.43,1.15,1.65,0,3.37-.72,4.59-1.89.97-.93,1.56-2.02,2.14-3.17Z"/>
      </g>
      <g>
        <path class="cls-9" d="M32.08,50.01h.42s-.27,1.06-.27,1.06c0,0-1.1,1.84-1.19,1.9s-1.02,1.02-1.1,1.1-1.57.88-1.57.88l-1.86.3-.98-.18s3.32-.62,6.56-5.07Z"/>
        <path class="cls-33" d="M32.25,50.01h1.28s-.07.15-.07.15c-.65,1.29-1.33,2.62-2.51,3.77-2.76,2.68-5.43,1.15-5.43,1.15,1.65,0,3.37-.72,4.59-1.89.97-.93,1.56-2.02,2.14-3.17Z"/>
      </g>
      <g>
        <path class="cls-9" d="M43.18,50.01h.42s-.27,1.06-.27,1.06c0,0-1.1,1.84-1.19,1.9s-1.02,1.02-1.1,1.1-1.57.88-1.57.88l-1.86.3-.98-.18s3.32-.62,6.56-5.07Z"/>
        <path class="cls-18" d="M43.35,50.01h1.28s-.07.15-.07.15c-.65,1.29-1.33,2.62-2.51,3.77-2.76,2.68-5.43,1.15-5.43,1.15,1.65,0,3.37-.72,4.59-1.89.97-.93,1.56-2.02,2.14-3.17Z"/>
      </g>
      <g>
        <path class="cls-9" d="M54.28,50.01h.42s-.27,1.06-.27,1.06c0,0-1.1,1.84-1.19,1.9s-1.02,1.02-1.1,1.1-1.57.88-1.57.88l-1.86.3-.98-.18s3.32-.62,6.56-5.07Z"/>
        <path class="cls-34" d="M54.46,50.01h1.28s-.07.15-.07.15c-.65,1.29-1.33,2.62-2.51,3.77-2.76,2.68-5.43,1.15-5.43,1.15,1.65,0,3.37-.72,4.59-1.89.97-.93,1.56-2.02,2.14-3.17Z"/>
      </g>
      <g>
        <path class="cls-9" d="M65.39,50.01h.42s-.27,1.06-.27,1.06c0,0-1.1,1.84-1.19,1.9s-1.02,1.02-1.1,1.1-1.57.88-1.57.88l-1.86.3-.98-.18s3.32-.62,6.56-5.07Z"/>
        <path class="cls-30" d="M65.56,50.01h1.28s-.07.15-.07.15c-.65,1.29-1.33,2.62-2.51,3.77-2.76,2.68-5.43,1.15-5.43,1.15,1.65,0,3.37-.72,4.59-1.89.97-.93,1.56-2.02,2.14-3.17Z"/>
      </g>
      <g>
        <path class="cls-9" d="M76.49,50.01h.42s-.27,1.06-.27,1.06c0,0-1.1,1.84-1.19,1.9s-1.02,1.02-1.1,1.1-1.57.88-1.57.88l-1.86.3-.98-.18s3.32-.62,6.56-5.07Z"/>
        <path class="cls-38" d="M76.66,50.01h1.28s-.07.15-.07.15c-.65,1.29-1.33,2.62-2.51,3.77-2.76,2.68-5.43,1.15-5.43,1.15,1.65,0,3.37-.72,4.59-1.89.97-.93,1.56-2.02,2.14-3.17Z"/>
      </g>
      <g>
        <path class="cls-9" d="M87.59,50.01h.42s-.27,1.06-.27,1.06c0,0-1.1,1.84-1.19,1.9s-1.02,1.02-1.1,1.1-1.57.88-1.57.88l-1.86.3-.98-.18s3.32-.62,6.56-5.07Z"/>
        <path class="cls-37" d="M87.76,50.01h1.28s-.07.15-.07.15c-.65,1.29-1.33,2.62-2.51,3.77-2.76,2.68-5.43,1.15-5.43,1.15,1.65,0,3.37-.72,4.59-1.89.97-.93,1.56-2.02,2.14-3.17Z"/>
      </g>
      <g>
        <path class="cls-9" d="M98.69,50.01h.42s-.27,1.06-.27,1.06c0,0-1.1,1.84-1.19,1.9s-1.02,1.02-1.1,1.1-1.57.88-1.57.88l-1.86.3-.98-.18s3.32-.62,6.56-5.07Z"/>
        <path class="cls-36" d="M98.87,50.01h1.28s-.07.15-.07.15c-.65,1.29-1.33,2.62-2.51,3.77-2.76,2.68-5.43,1.15-5.43,1.15,1.65,0,3.37-.72,4.59-1.89.97-.93,1.56-2.02,2.14-3.17Z"/>
      </g>
    </g>
    <g>
      <g>
        <path class="cls-9" d="M9.87,50.01h.42s-.27-1.06-.27-1.06c0,0-1.1-1.84-1.19-1.9s-1.02-1.02-1.1-1.1-1.57-.88-1.57-.88l-1.86-.3-.98.18s3.32.62,6.56,5.07Z"/>
        <path class="cls-13" d="M10.04,50.01h1.28s-.07-.15-.07-.15c-.65-1.29-1.33-2.62-2.51-3.77-2.76-2.68-5.43-1.15-5.43-1.15,1.65,0,3.37.72,4.59,1.89.97.93,1.56,2.02,2.14,3.17Z"/>
      </g>
      <g>
        <path class="cls-9" d="M20.97,50.01h.42s-.27-1.06-.27-1.06c0,0-1.1-1.84-1.19-1.9s-1.02-1.02-1.1-1.1-1.57-.88-1.57-.88l-1.86-.3-.98.18s3.32.62,6.56,5.07Z"/>
        <path class="cls-22" d="M21.15,50.01h1.28s-.07-.15-.07-.15c-.65-1.29-1.33-2.62-2.51-3.77-2.76-2.68-5.43-1.15-5.43-1.15,1.65,0,3.37.72,4.59,1.89.97.93,1.56,2.02,2.14,3.17Z"/>
      </g>
      <g>
        <path class="cls-9" d="M32.08,50.01h.42s-.27-1.06-.27-1.06c0,0-1.1-1.84-1.19-1.9s-1.02-1.02-1.1-1.1-1.57-.88-1.57-.88l-1.86-.3-.98.18s3.32.62,6.56,5.07Z"/>
        <path class="cls-5" d="M32.25,50.01h1.28s-.07-.15-.07-.15c-.65-1.29-1.33-2.62-2.51-3.77-2.76-2.68-5.43-1.15-5.43-1.15,1.65,0,3.37.72,4.59,1.89.97.93,1.56,2.02,2.14,3.17Z"/>
      </g>
      <g>
        <path class="cls-9" d="M43.18,50.01h.42s-.27-1.06-.27-1.06c0,0-1.1-1.84-1.19-1.9s-1.02-1.02-1.1-1.1-1.57-.88-1.57-.88l-1.86-.3-.98.18s3.32.62,6.56,5.07Z"/>
        <path class="cls-14" d="M43.35,50.01h1.28s-.07-.15-.07-.15c-.65-1.29-1.33-2.62-2.51-3.77-2.76-2.68-5.43-1.15-5.43-1.15,1.65,0,3.37.72,4.59,1.89.97.93,1.56,2.02,2.14,3.17Z"/>
      </g>
      <g>
        <path class="cls-9" d="M54.28,50.01h.42s-.27-1.06-.27-1.06c0,0-1.1-1.84-1.19-1.9s-1.02-1.02-1.1-1.1-1.57-.88-1.57-.88l-1.86-.3-.98.18s3.32.62,6.56,5.07Z"/>
        <path class="cls-21" d="M54.46,50.01h1.28s-.07-.15-.07-.15c-.65-1.29-1.33-2.62-2.51-3.77-2.76-2.68-5.43-1.15-5.43-1.15,1.65,0,3.37.72,4.59,1.89.97.93,1.56,2.02,2.14,3.17Z"/>
      </g>
      <g>
        <path class="cls-9" d="M65.39,50.01h.42s-.27-1.06-.27-1.06c0,0-1.1-1.84-1.19-1.9s-1.02-1.02-1.1-1.1-1.57-.88-1.57-.88l-1.86-.3-.98.18s3.32.62,6.56,5.07Z"/>
        <path class="cls-31" d="M65.56,50.01h1.28s-.07-.15-.07-.15c-.65-1.29-1.33-2.62-2.51-3.77-2.76-2.68-5.43-1.15-5.43-1.15,1.65,0,3.37.72,4.59,1.89.97.93,1.56,2.02,2.14,3.17Z"/>
      </g>
      <g>
        <path class="cls-9" d="M76.49,50.01h.42s-.27-1.06-.27-1.06c0,0-1.1-1.84-1.19-1.9s-1.02-1.02-1.1-1.1-1.57-.88-1.57-.88l-1.86-.3-.98.18s3.32.62,6.56,5.07Z"/>
        <path class="cls-41" d="M76.66,50.01h1.28s-.07-.15-.07-.15c-.65-1.29-1.33-2.62-2.51-3.77-2.76-2.68-5.43-1.15-5.43-1.15,1.65,0,3.37.72,4.59,1.89.97.93,1.56,2.02,2.14,3.17Z"/>
      </g>
      <g>
        <path class="cls-9" d="M87.59,50.01h.42s-.27-1.06-.27-1.06c0,0-1.1-1.84-1.19-1.9s-1.02-1.02-1.1-1.1-1.57-.88-1.57-.88l-1.86-.3-.98.18s3.32.62,6.56,5.07Z"/>
        <path class="cls-1" d="M87.76,50.01h1.28s-.07-.15-.07-.15c-.65-1.29-1.33-2.62-2.51-3.77-2.76-2.68-5.43-1.15-5.43-1.15,1.65,0,3.37.72,4.59,1.89.97.93,1.56,2.02,2.14,3.17Z"/>
      </g>
      <g>
        <path class="cls-9" d="M98.69,50.01h.42s-.27-1.06-.27-1.06c0,0-1.1-1.84-1.19-1.9s-1.02-1.02-1.1-1.1-1.57-.88-1.57-.88l-1.86-.3-.98.18s3.32.62,6.56,5.07Z"/>
        <path class="cls-27" d="M98.87,50.01h1.28s-.07-.15-.07-.15c-.65-1.29-1.33-2.62-2.51-3.77-2.76-2.68-5.43-1.15-5.43-1.15,1.65,0,3.37.72,4.59,1.89.97.93,1.56,2.02,2.14,3.17Z"/>
      </g>
    </g>
    <rect class="cls-15" x=".15" y="49.44" width="100" height="1.14"/>
    <rect class="cls-9" x=".15" y="50.58" width="100" height=".39"/>
  </g>
</svg>