<?xml version="1.0" encoding="UTF-8"?>
<svg id="Layer_1" data-name="Layer 1" xmlns="http://www.w3.org/2000/svg" xmlns:xlink="http://www.w3.org/1999/xlink" viewBox="0 0 1000 1000">
  <defs>
    <style>
      .cls-1 {
        fill: url(#linear-gradient-12);
      }

      .cls-1, .cls-2, .cls-3, .cls-4, .cls-5, .cls-6, .cls-7, .cls-8, .cls-9, .cls-10, .cls-11, .cls-12, .cls-13, .cls-14, .cls-15, .cls-16 {
        stroke-width: 0px;
      }

      .cls-2 {
        fill: url(#linear-gradient);
      }

      .cls-3 {
        fill: url(#linear-gradient-6);
      }

      .cls-4 {
        fill: #131417;
      }

      .cls-5 {
        fill: url(#linear-gradient-11);
      }

      .cls-6 {
        opacity: .97;
      }

      .cls-6, .cls-7 {
        fill: #45474b;
      }

      .cls-8 {
        fill: url(#linear-gradient-5);
      }

      .cls-9 {
        fill: #f4ce14;
      }

      .cls-10 {
        fill: url(#linear-gradient-2);
      }

      .cls-11 {
        fill: url(#linear-gradient-7);
      }

      .cls-12 {
        fill: url(#linear-gradient-3);
      }

      .cls-13 {
        fill: url(#linear-gradient-9);
      }

      .cls-14 {
        fill: url(#linear-gradient-8);
      }

      .cls-15 {
        fill: url(#linear-gradient-10);
      }

      .cls-16 {
        fill: url(#linear-gradient-4);
      }
    </style>
    <linearGradient id="linear-gradient" x1="183.26" y1="605.28" x2="183.26" y2="561.07" gradientTransform="translate(316.89 1518.81) scale(1 -1)" gradientUnits="userSpaceOnUse">
      <stop offset="0" stop-color="#45474b"/>
      <stop offset=".33" stop-color="#606167" stop-opacity=".98"/>
      <stop offset=".53" stop-color="#6b6c72" stop-opacity=".97"/>
      <stop offset=".68" stop-color="#65666c" stop-opacity=".97"/>
      <stop offset=".86" stop-color="#56585d" stop-opacity=".99"/>
      <stop offset="1" stop-color="#45474b"/>
    </linearGradient>
    <linearGradient id="linear-gradient-2" x1="626.68" y1="598.25" x2="626.68" y2="554.83" gradientTransform="translate(316.89 1518.81) scale(1 -1)" gradientUnits="userSpaceOnUse">
      <stop offset="0" stop-color="#191b21"/>
      <stop offset=".22" stop-color="#404351"/>
      <stop offset=".43" stop-color="#62667c"/>
      <stop offset=".6" stop-color="#777c96"/>
      <stop offset=".7" stop-color="#7f84a0"/>
      <stop offset=".75" stop-color="#7b7f9b"/>
      <stop offset=".82" stop-color="#70738c"/>
      <stop offset=".88" stop-color="#5e6075"/>
      <stop offset=".95" stop-color="#454454"/>
      <stop offset="1" stop-color="#302d39"/>
    </linearGradient>
    <linearGradient id="linear-gradient-3" x1="574.6" y1="598.25" x2="574.6" y2="554.83" xlink:href="#linear-gradient-2"/>
    <linearGradient id="linear-gradient-4" x1="483.5" y1="598.25" x2="483.5" y2="554.83" xlink:href="#linear-gradient-2"/>
    <linearGradient id="linear-gradient-5" x1="392.4" y1="598.25" x2="392.4" y2="554.83" xlink:href="#linear-gradient-2"/>
    <linearGradient id="linear-gradient-6" x1="301.3" y1="598.25" x2="301.3" y2="554.83" xlink:href="#linear-gradient-2"/>
    <linearGradient id="linear-gradient-7" x1="210.2" y1="598.25" x2="210.2" y2="554.83" xlink:href="#linear-gradient-2"/>
    <linearGradient id="linear-gradient-8" x1="119.1" y1="598.25" x2="119.1" y2="554.83" xlink:href="#linear-gradient-2"/>
    <linearGradient id="linear-gradient-9" x1="28.01" y1="598.25" x2="28.01" y2="554.83" xlink:href="#linear-gradient-2"/>
    <linearGradient id="linear-gradient-10" x1="-63.09" y1="598.25" x2="-63.09" y2="554.83" xlink:href="#linear-gradient-2"/>
    <linearGradient id="linear-gradient-11" x1="-154.19" y1="598.25" x2="-154.19" y2="554.83" xlink:href="#linear-gradient-2"/>
    <linearGradient id="linear-gradient-12" x1="-233.17" y1="598.49" x2="-233.17" y2="556.22" xlink:href="#linear-gradient-2"/>
  </defs>
  <g>
    <path class="cls-6" d="M246.64,154.42l-107.27,57.5v504.93l83.59-88.42,152.69,24.16V191.14l-129.01-36.72ZM299.83,615.44l-24.82-7.29v-21.77l25.26,8.71-.44,20.36ZM299.83,565.8l-24.82-7.29v-21.77l25.26,8.71-.44,20.36ZM299.83,516.16l-24.82-7.29v-21.77l25.26,8.71-.44,20.36ZM299.83,466.52l-24.82-7.29v-21.77l25.26,8.71-.44,20.36ZM299.83,416.88l-24.82-7.29v-21.77l25.26,8.71-.44,20.36ZM299.83,367.24l-24.82-7.29v-21.77l25.26,8.71-.44,20.36ZM299.83,317.6l-24.82-7.29v-21.77l25.26,8.71-.44,20.36ZM299.83,267.96l-24.82-7.29v-21.77l25.26,8.71-.44,20.36ZM299.83,218.32l-24.82-7.29v-21.77l25.26,8.71-.44,20.36ZM351.63,629.98l-24.82-7.29v-21.77l25.26,8.71-.44,20.36ZM351.63,580.34l-24.82-7.29v-21.77l25.26,8.71-.44,20.36ZM351.63,530.7l-24.82-7.29v-21.77l25.26,8.71-.44,20.36ZM351.63,481.06l-24.82-7.29v-21.77l25.26,8.71-.44,20.36ZM351.63,431.42l-24.82-7.29v-21.77l25.26,8.71-.44,20.36ZM351.63,381.77l-24.82-7.29v-21.77l25.26,8.71-.44,20.36ZM351.63,332.13l-24.82-7.29v-21.77l25.26,8.71-.44,20.36ZM351.63,282.49l-24.82-7.29v-21.77l25.26,8.71-.44,20.36ZM351.63,232.85l-24.82-7.29v-21.77l25.26,8.71-.44,20.36Z"/>
    <polygon class="cls-7" points="623.7 239.26 770.95 197.29 858.33 239.26 858.33 317.6 765.44 277.11 623.7 317.6 623.7 239.26"/>
    <polygon class="cls-7" points="623.7 381.03 770.95 339.06 858.33 381.03 858.33 459.37 765.44 418.87 623.7 459.37 623.7 381.03"/>
    <polygon class="cls-7" points="715.9 575.73 698.7 557.84 623.7 537.88 623.7 525.5 774.39 481.06 858.33 524.12 858.33 600.91 770.95 559.21 715.9 575.73"/>
    <polygon class="cls-7" points="764.07 622.52 858.33 721.6 858.33 663.8 773.01 622.52 764.07 622.52"/>
  </g>
  <g>
    <g>
      <rect class="cls-9" x="187.88" y="801.9" width="30.58" height="30.58"/>
      <rect class="cls-9" x="224.26" y="801.9" width="30.58" height="30.58"/>
      <rect class="cls-9" x="224.26" y="838.21" width="30.58" height="30.58"/>
      <rect class="cls-9" x="187.88" y="838.21" width="30.58" height="30.58"/>
    </g>
    <g>
      <rect class="cls-9" x="563.54" y="823.88" width="20.53" height="20.53"/>
      <rect class="cls-9" x="587.96" y="823.88" width="20.53" height="20.53"/>
      <rect class="cls-9" x="587.96" y="848.26" width="20.53" height="20.53"/>
      <rect class="cls-9" x="563.54" y="848.26" width="20.53" height="20.53"/>
    </g>
    <g>
      <rect class="cls-9" x="498.82" y="653.29" width="30.58" height="30.58"/>
      <rect class="cls-9" x="535.2" y="653.29" width="30.58" height="30.58"/>
      <rect class="cls-9" x="535.2" y="689.59" width="30.58" height="30.58"/>
      <rect class="cls-9" x="498.82" y="689.59" width="30.58" height="30.58"/>
    </g>
    <polygon class="cls-9" points="623.7 104.62 599.16 92.7 599.16 530.7 623.7 537.88 623.7 104.62"/>
    <polygon class="cls-9" points="574.39 79.85 550.54 67.92 550.54 521.14 574.39 525.73 574.39 79.85"/>
    <polygon class="cls-9" points="962.93 868.79 687.01 580.34 534.25 540.98 418.66 687.2 233.56 656.93 34.7 868.79 70.48 868.79 231.5 693.4 393.89 868.79 508.11 868.79 587.96 784.22 667.74 868.79 700.77 868.79 587.96 746.38 488.15 758.08 436.55 703.03 532.88 580.34 806.74 868.79 962.93 868.79"/>
    <path class="cls-9" d="M498.86,40.4l-123.21,62.39v549.8l29.93,4.34,119.27-146.79V53.25l-25.99-12.84ZM431.67,243.92l8.21-3.01c.65-.24,1.13-.54,1.45-.89.32-.36.48-.91.48-1.66v-53.36c0-.71-.19-1.25-.56-1.61-.37-.36-.83-.62-1.38-.79l-8.21-3.01v-4.38h37.21v4.38l-8.21,3.01c-.54.2-1.01.48-1.4.84-.39.36-.59.88-.59,1.55v53.36c0,.75.2,1.31.59,1.68.39.37.86.66,1.4.87l8.21,3.01v4.38h-37.21v-4.38ZM468.88,408.96l-8.21,3.01c-.54.2-1.01.48-1.4.84-.39.36-.59.88-.59,1.55v53.36c0,.75.2,1.31.59,1.68.39.37.86.66,1.4.87l8.21,3.01v4.38h-37.21v-4.38l8.21-3.01c.65-.24,1.13-.54,1.45-.89.32-.36.48-.91.48-1.66v-53.36c0-.71-.19-1.25-.56-1.61-.37-.36-.83-.62-1.38-.79l-8.21-3.01v-4.38h37.21v4.38ZM476.6,352.51c-2.31,3.65-5.85,6.6-10.63,8.84-4.77,2.24-10.83,3.36-18.17,3.36-2.51,0-5.32-.23-8.41-.69-3.09-.46-6.19-1.05-9.3-1.76-3.11-.71-6.01-1.44-8.69-2.19l-.31-21.46h6.78l3.01,9.73c.17.54.5,1.05.99,1.5.49.46.93.82,1.3,1.1,1.19.75,2.69,1.52,4.51,2.32,1.82.8,3.71,1.47,5.68,2.01,1.97.54,3.74.82,5.3.82,4.35,0,7.89-.96,10.63-2.88,2.73-1.92,4.1-4.46,4.1-7.62,0-2.89-.87-5.01-2.6-6.37-1.73-1.36-4.13-2.63-7.19-3.82-2.89-1.12-5.73-2.06-8.54-2.8-2.8-.75-5.56-1.65-8.28-2.7-4.21-1.63-7.59-4.04-10.14-7.24-2.55-3.19-3.82-7.22-3.82-12.08,0-4.52,1.33-8.45,4-11.8,2.67-3.35,6.17-5.95,10.5-7.8,4.33-1.85,9-2.78,13.99-2.78,2.89,0,5.83.17,8.82.51,2.99.34,5.85.76,8.59,1.25,2.73.49,5.14.99,7.21,1.5v20.69h-6.73l-2.91-9.17c-.17-.51-.49-.99-.97-1.45-.48-.46-.92-.82-1.33-1.1-.65-.41-1.69-.89-3.13-1.45-1.44-.56-3.02-1.06-4.71-1.5-1.7-.44-3.3-.66-4.79-.66-4.15,0-7.28.94-9.4,2.83-2.12,1.89-3.19,3.93-3.19,6.14,0,2.38.73,4.41,2.19,6.09,1.46,1.68,4.18,3.19,8.15,4.51,2.72.92,5.39,1.75,8,2.5,2.62.75,5.47,1.73,8.56,2.96,2.55,1.02,4.91,2.32,7.08,3.9,2.17,1.58,3.93,3.59,5.28,6.01,1.34,2.43,2.01,5.41,2.01,8.95,0,4.21-1.16,8.15-3.47,11.8Z"/>
  </g>
  <g>
    <polygon class="cls-2" points="34.36 928.32 34.36 913.53 965.95 913.53 965.95 957.74 34.36 957.74 34.36 928.32"/>
    <g>
      <path class="cls-4" d="M966.04,949.91c-2.77,1.65-6.18,3.6-7.07,4.03-1.43.69-13.84,3.45-13.84,3.45l-10.26.69-13.78-.35s21.81-1.83,44.94-14.96v7.13Z"/>
      <path class="cls-10" d="M966.04,952.82c-.13.06-.25.13-.38.19-22.61,11.2-44.56,4.73-44.56,4.73,13.56.04,27.65-2.92,37.68-7.83,2.76-1.35,5.13-2.78,7.27-4.27v7.18Z"/>
    </g>
    <g>
      <path class="cls-4" d="M952.98,913.48s-31.11,2.94-59.26,25.23l4.22-8.49s9.07-7.71,9.78-7.94,8.35-4.26,9.07-4.6,12.88-3.68,12.88-3.68l15.27-1.27,8.04.75Z"/>
      <path class="cls-4" d="M830,957.74s30.02-2.51,56.97-22.84v3.81s-7.16,7.98-8.36,8.9-9.3,5.64-10.74,6.33-13.84,3.45-13.84,3.45l-10.26.69-13.78-.35Z"/>
      <path class="cls-12" d="M915.3,921.4c-8.51,4.17-13.42,9.06-18.55,14.25h0c-.25.25-.5.5-.75.75l-.83.84c-5.33,5.4-10.9,10.96-20.61,15.77-22.61,11.2-44.56,4.73-44.56,4.73,13.56.04,27.65-2.92,37.68-7.83,8.51-4.17,13.42-9.06,18.55-14.25h0c.25-.25.5-.5.75-.75l.83-.84c5.33-5.4,10.9-10.96,20.61-15.77,22.61-11.2,44.56-4.82,44.56-4.82-13.56-.04-27.65,3.01-37.68,7.92Z"/>
    </g>
    <g>
      <path class="cls-4" d="M861.88,913.48s-31.11,2.94-59.26,25.23l4.22-8.49s9.07-7.71,9.78-7.94,8.35-4.26,9.07-4.6,12.88-3.68,12.88-3.68l15.27-1.27,8.04.75Z"/>
      <path class="cls-4" d="M738.9,957.74s30.02-2.51,56.97-22.84v3.81s-7.16,7.98-8.36,8.9-9.3,5.64-10.74,6.33c-1.43.69-13.84,3.45-13.84,3.45l-10.26.69-13.78-.35Z"/>
      <path class="cls-16" d="M824.2,921.4c-8.51,4.17-13.42,9.06-18.55,14.25h0c-.25.25-.5.5-.75.75l-.83.84c-5.33,5.4-10.9,10.96-20.61,15.77-22.61,11.2-44.56,4.73-44.56,4.73,13.56.04,27.65-2.92,37.68-7.83,8.51-4.17,13.42-9.06,18.55-14.25h0c.25-.25.5-.5.75-.75l.83-.84c5.33-5.4,10.9-10.96,20.61-15.77,22.61-11.2,44.56-4.82,44.56-4.82-13.56-.04-27.65,3.01-37.68,7.92Z"/>
    </g>
    <g>
      <path class="cls-4" d="M770.78,913.48s-31.11,2.94-59.26,25.23l4.22-8.49s9.07-7.71,9.78-7.94,8.35-4.26,9.07-4.6,12.88-3.68,12.88-3.68l15.27-1.27,8.04.75Z"/>
      <path class="cls-4" d="M647.8,957.74s30.02-2.51,56.97-22.84v3.81s-7.16,7.98-8.36,8.9-9.3,5.64-10.74,6.33c-1.43.69-13.84,3.45-13.84,3.45l-10.26.69-13.78-.35Z"/>
      <path class="cls-8" d="M733.1,921.4c-8.51,4.17-13.42,9.06-18.55,14.25h0c-.25.25-.5.5-.75.75l-.83.84c-5.33,5.4-10.9,10.96-20.61,15.77-22.61,11.2-44.56,4.73-44.56,4.73,13.56.04,27.65-2.92,37.68-7.83,8.51-4.17,13.42-9.06,18.55-14.25h0c.25-.25.5-.5.75-.75l.83-.84c5.33-5.4,10.9-10.96,20.61-15.77,22.61-11.2,44.56-4.82,44.56-4.82-13.56-.04-27.65,3.01-37.68,7.92Z"/>
    </g>
    <g>
      <path class="cls-4" d="M679.68,913.48s-31.11,2.94-59.26,25.23l4.22-8.49s9.07-7.71,9.78-7.94,8.35-4.26,9.07-4.6,12.88-3.68,12.88-3.68l15.27-1.27,8.04.75Z"/>
      <path class="cls-4" d="M556.71,957.74s30.02-2.51,56.97-22.84v3.81s-7.16,7.98-8.36,8.9-9.3,5.64-10.74,6.33c-1.43.69-13.84,3.45-13.84,3.45l-10.26.69-13.78-.35Z"/>
      <path class="cls-3" d="M642,921.4c-8.51,4.17-13.42,9.06-18.55,14.25h0c-.25.25-.5.5-.75.75l-.83.84c-5.33,5.4-10.9,10.96-20.61,15.77-22.61,11.2-44.56,4.73-44.56,4.73,13.56.04,27.65-2.92,37.68-7.83,8.51-4.17,13.42-9.06,18.55-14.25h0c.25-.25.5-.5.75-.75l.83-.84c5.33-5.4,10.9-10.96,20.61-15.77,22.61-11.2,44.56-4.82,44.56-4.82-13.56-.04-27.65,3.01-37.68,7.92Z"/>
    </g>
    <g>
      <path class="cls-4" d="M588.58,913.48s-31.11,2.94-59.26,25.23l4.22-8.49s9.07-7.71,9.78-7.94,8.35-4.26,9.07-4.6,12.88-3.68,12.88-3.68l15.27-1.27,8.04.75Z"/>
      <path class="cls-4" d="M465.61,957.74s30.02-2.51,56.97-22.84v3.81s-7.16,7.98-8.36,8.9-9.3,5.64-10.74,6.33c-1.43.69-13.84,3.45-13.84,3.45l-10.26.69-13.78-.35Z"/>
      <path class="cls-11" d="M550.9,921.4c-8.51,4.17-13.42,9.06-18.55,14.25h0c-.25.25-.5.5-.75.75l-.83.84c-5.33,5.4-10.9,10.96-20.61,15.77-22.61,11.2-44.56,4.73-44.56,4.73,13.56.04,27.65-2.92,37.68-7.83,8.51-4.17,13.42-9.06,18.55-14.25h0c.25-.25.5-.5.75-.75l.83-.84c5.33-5.4,10.9-10.96,20.61-15.77,22.61-11.2,44.56-4.82,44.56-4.82-13.56-.04-27.65,3.01-37.68,7.92Z"/>
    </g>
    <g>
      <path class="cls-4" d="M497.48,913.48s-31.11,2.94-59.26,25.23l4.22-8.49s9.07-7.71,9.78-7.94,8.35-4.26,9.07-4.6,12.88-3.68,12.88-3.68l15.27-1.27,8.04.75Z"/>
      <path class="cls-4" d="M374.51,957.74s30.02-2.51,56.97-22.84v3.81s-7.16,7.98-8.36,8.9-9.3,5.64-10.74,6.33c-1.43.69-13.84,3.45-13.84,3.45l-10.26.69-13.78-.35Z"/>
      <path class="cls-14" d="M459.81,921.4c-8.51,4.17-13.42,9.06-18.55,14.25h0c-.25.25-.5.5-.75.75l-.83.84c-5.33,5.4-10.9,10.96-20.61,15.77-22.61,11.2-44.56,4.73-44.56,4.73,13.56.04,27.65-2.92,37.68-7.83,8.51-4.17,13.42-9.06,18.55-14.25h0c.25-.25.5-.5.75-.75l.83-.84c5.33-5.4,10.9-10.96,20.61-15.77,22.61-11.2,44.56-4.82,44.56-4.82-13.56-.04-27.65,3.01-37.68,7.92Z"/>
    </g>
    <g>
      <path class="cls-4" d="M406.39,913.48s-31.11,2.94-59.26,25.23l4.22-8.49s9.07-7.71,9.78-7.94,8.35-4.26,9.07-4.6,12.88-3.68,12.88-3.68l15.27-1.27,8.04.75Z"/>
      <path class="cls-4" d="M283.41,957.74s30.02-2.51,56.97-22.84v3.81s-7.16,7.98-8.36,8.9-9.3,5.64-10.74,6.33c-1.43.69-13.84,3.45-13.84,3.45l-10.26.69-13.78-.35Z"/>
      <path class="cls-13" d="M368.71,921.4c-8.51,4.17-13.42,9.06-18.55,14.25h0c-.25.25-.5.5-.75.75l-.83.84c-5.33,5.4-10.9,10.96-20.61,15.77-22.61,11.2-44.56,4.73-44.56,4.73,13.56.04,27.65-2.92,37.68-7.83,8.51-4.17,13.42-9.06,18.55-14.25h0c.25-.25.5-.5.75-.75l.83-.84c5.33-5.4,10.9-10.96,20.61-15.77,22.61-11.2,44.56-4.82,44.56-4.82-13.56-.04-27.65,3.01-37.68,7.92Z"/>
    </g>
    <g>
      <path class="cls-4" d="M315.29,913.48s-31.11,2.94-59.26,25.23l4.22-8.49s9.07-7.71,9.78-7.94,8.35-4.26,9.07-4.6,12.88-3.68,12.88-3.68l15.27-1.27,8.04.75Z"/>
      <path class="cls-4" d="M192.31,957.74s30.02-2.51,56.97-22.84v3.81s-7.16,7.98-8.36,8.9c-1.19.92-9.3,5.64-10.74,6.33-1.43.69-13.84,3.45-13.84,3.45l-10.26.69-13.78-.35Z"/>
      <path class="cls-15" d="M277.61,921.4c-8.51,4.17-13.42,9.06-18.55,14.25h0c-.25.25-.5.5-.75.75l-.83.84c-5.33,5.4-10.9,10.96-20.61,15.77-22.61,11.2-44.56,4.73-44.56,4.73,13.56.04,27.65-2.92,37.68-7.83,8.51-4.17,13.42-9.06,18.55-14.25h0c.25-.25.5-.5.75-.75l.83-.84c5.33-5.4,10.9-10.96,20.61-15.77,22.61-11.2,44.56-4.82,44.56-4.82-13.56-.04-27.65,3.01-37.68,7.92Z"/>
    </g>
    <g>
      <path class="cls-4" d="M224.19,913.48s-31.11,2.94-59.26,25.23l4.22-8.49s9.07-7.71,9.78-7.94,8.35-4.26,9.07-4.6,12.88-3.68,12.88-3.68l15.27-1.27,8.04.75Z"/>
      <path class="cls-4" d="M101.21,957.74s30.02-2.51,56.97-22.84v3.81s-7.16,7.98-8.36,8.9-9.3,5.64-10.74,6.33c-1.43.69-13.84,3.45-13.84,3.45l-10.26.69-13.78-.35Z"/>
      <path class="cls-5" d="M186.51,921.4c-8.51,4.17-13.42,9.06-18.55,14.25h0c-.25.25-.5.5-.75.75l-.83.84c-5.33,5.4-10.9,10.96-20.61,15.77-22.61,11.2-44.56,4.73-44.56,4.73,13.56.04,27.65-2.92,37.68-7.83,8.51-4.17,13.42-9.06,18.55-14.25h0c.25-.25.5-.5.75-.75l.83-.84c5.33-5.4,10.9-10.96,20.61-15.77,22.61-11.2,44.56-4.82,44.56-4.82-13.56-.04-27.65,3.01-37.68,7.92Z"/>
    </g>
    <g>
      <path class="cls-4" d="M133.09,913.48s-31.11,2.94-59.26,25.23l4.22-8.49s9.07-7.71,9.78-7.94,8.35-4.26,9.07-4.6,12.88-3.68,12.88-3.68l15.27-1.27,8.04.75Z"/>
      <path class="cls-4" d="M34.36,952.08c9.87-3.39,21.56-8.75,32.73-17.17v3.81s-7.16,7.98-8.36,8.9-9.3,5.64-10.74,6.33c-1.32.64-12.04,3.05-13.63,3.41v-5.27Z"/>
      <path class="cls-1" d="M34.36,954.73c4.92-1.26,9.49-2.89,13.43-4.82,8.51-4.17,13.42-9.06,18.55-14.25h0c.25-.25.5-.5.75-.75l.83-.84c5.33-5.4,10.9-10.96,20.61-15.77,22.61-11.2,44.56-4.82,44.56-4.82-13.56-.04-27.65,3.01-37.68,7.92-8.51,4.17-13.42,9.06-18.55,14.25h0c-.25.25-.5.5-.75.75l-.83.84c-5.33,5.4-10.9,10.96-20.61,15.77-4.43,2.19-8.84,3.71-13.06,4.73-2.5.6-7.26-3.01-7.26-3.01Z"/>
    </g>
    <ellipse class="cls-7" cx="965.64" cy="935.64" rx="9.36" ry="22.1"/>
    <ellipse class="cls-7" cx="34.36" cy="935.64" rx="9.36" ry="22.1"/>
  </g>
</svg>