<?xml version="1.0" encoding="UTF-8"?>
<svg id="Layer_1" data-name="Layer 1" xmlns="http://www.w3.org/2000/svg" xmlns:xlink="http://www.w3.org/1999/xlink" viewBox="0 0 1000 1000">
  <defs>
    <style>
      .cls-1 {
        fill: url(#linear-gradient-12);
      }

      .cls-1, .cls-2, .cls-3, .cls-4, .cls-5, .cls-6, .cls-7, .cls-8, .cls-9, .cls-10, .cls-11, .cls-12, .cls-13, .cls-14, .cls-15, .cls-16 {
        stroke-width: 0px;
      }

      .cls-2 {
        fill: url(#linear-gradient);
      }

      .cls-3 {
        fill: url(#linear-gradient-6);
      }

      .cls-4 {
        fill: #131417;
      }

      .cls-5 {
        fill: url(#linear-gradient-11);
      }

      .cls-6 {
        opacity: .97;
      }

      .cls-6, .cls-7, .cls-17 {
        fill: #45474b;
      }

      .cls-8 {
        fill: url(#linear-gradient-5);
      }

      .cls-9 {
        fill: #f4ce14;
      }

      .cls-10 {
        fill: url(#linear-gradient-2);
      }

      .cls-11 {
        fill: url(#linear-gradient-7);
      }

      .cls-12 {
        fill: url(#linear-gradient-3);
      }

      .cls-13 {
        fill: url(#linear-gradient-9);
      }

      .cls-17 {
        font-family: Inter-ExtraBold, Inter;
        font-size: 79.93px;
        font-variation-settings: 'wght' 800, 'slnt' 0;
        font-weight: 700;
      }

      .cls-14 {
        fill: url(#linear-gradient-8);
      }

      .cls-18 {
        letter-spacing: -.02em;
      }

      .cls-15 {
        fill: url(#linear-gradient-10);
      }

      .cls-16 {
        fill: url(#linear-gradient-4);
      }
    </style>
    <linearGradient id="linear-gradient" x1="183.25" y1="686.72" x2="183.25" y2="645.64" gradientTransform="translate(316.89 1518.81) scale(1 -1)" gradientUnits="userSpaceOnUse">
      <stop offset="0" stop-color="#45474b"/>
      <stop offset=".33" stop-color="#606167" stop-opacity=".98"/>
      <stop offset=".53" stop-color="#6b6c72" stop-opacity=".97"/>
      <stop offset=".68" stop-color="#65666c" stop-opacity=".97"/>
      <stop offset=".86" stop-color="#56585d" stop-opacity=".99"/>
      <stop offset="1" stop-color="#45474b"/>
    </linearGradient>
    <linearGradient id="linear-gradient-2" x1="595.3" y1="680.19" x2="595.3" y2="639.84" gradientTransform="translate(316.89 1518.81) scale(1 -1)" gradientUnits="userSpaceOnUse">
      <stop offset="0" stop-color="#191b21"/>
      <stop offset=".22" stop-color="#404351"/>
      <stop offset=".43" stop-color="#62667c"/>
      <stop offset=".6" stop-color="#777c96"/>
      <stop offset=".7" stop-color="#7f84a0"/>
      <stop offset=".75" stop-color="#7b7f9b"/>
      <stop offset=".82" stop-color="#70738c"/>
      <stop offset=".88" stop-color="#5e6075"/>
      <stop offset=".95" stop-color="#454454"/>
      <stop offset="1" stop-color="#302d39"/>
    </linearGradient>
    <linearGradient id="linear-gradient-3" x1="546.91" y1="680.19" x2="546.91" y2="639.84" xlink:href="#linear-gradient-2"/>
    <linearGradient id="linear-gradient-4" x1="462.25" y1="680.19" x2="462.25" y2="639.84" xlink:href="#linear-gradient-2"/>
    <linearGradient id="linear-gradient-5" x1="377.6" y1="680.19" x2="377.6" y2="639.84" xlink:href="#linear-gradient-2"/>
    <linearGradient id="linear-gradient-6" x1="292.94" y1="680.19" x2="292.94" y2="639.84" xlink:href="#linear-gradient-2"/>
    <linearGradient id="linear-gradient-7" x1="208.29" y1="680.19" x2="208.29" y2="639.84" xlink:href="#linear-gradient-2"/>
    <linearGradient id="linear-gradient-8" x1="123.63" y1="680.19" x2="123.63" y2="639.84" xlink:href="#linear-gradient-2"/>
    <linearGradient id="linear-gradient-9" x1="38.98" y1="680.19" x2="38.98" y2="639.84" xlink:href="#linear-gradient-2"/>
    <linearGradient id="linear-gradient-10" x1="-45.68" y1="680.19" x2="-45.68" y2="639.84" xlink:href="#linear-gradient-2"/>
    <linearGradient id="linear-gradient-11" x1="-130.33" y1="680.19" x2="-130.33" y2="639.84" xlink:href="#linear-gradient-2"/>
    <linearGradient id="linear-gradient-12" x1="-203.72" y1="680.41" x2="-203.72" y2="641.13" xlink:href="#linear-gradient-2"/>
  </defs>
  <text class="cls-17" transform="translate(67.62 955.74)"><tspan x="0" y="0">Ik</tspan><tspan class="cls-18" x="70.33" y="0">r</tspan><tspan x="102.35" y="0">am Steel Industries</tspan></text>
  <g>
    <path class="cls-6" d="M264.56,126.67l-99.68,53.43v469.22l77.68-82.17,141.89,22.45V160.79l-119.89-34.12ZM313.99,555.08l-23.07-6.78v-20.23l23.47,8.09-.4,18.92ZM313.99,508.95l-23.07-6.78v-20.23l23.47,8.09-.4,18.92ZM313.99,462.83l-23.07-6.78v-20.23l23.47,8.09-.4,18.92ZM313.99,416.7l-23.07-6.78v-20.23l23.47,8.09-.4,18.92ZM313.99,370.57l-23.07-6.78v-20.23l23.47,8.09-.4,18.92ZM313.99,324.44l-23.07-6.78v-20.23l23.47,8.09-.4,18.92ZM313.99,278.31l-23.07-6.78v-20.23l23.47,8.09-.4,18.92ZM313.99,232.18l-23.07-6.78v-20.23l23.47,8.09-.4,18.92ZM313.99,186.05l-23.07-6.78v-20.23l23.47,8.09-.4,18.92ZM362.12,568.59l-23.07-6.78v-20.23l23.47,8.09-.4,18.92ZM362.12,522.46l-23.07-6.78v-20.23l23.47,8.09-.4,18.92ZM362.12,476.33l-23.07-6.78v-20.23l23.47,8.09-.4,18.92ZM362.12,430.2l-23.07-6.78v-20.23l23.47,8.09-.4,18.92ZM362.12,384.07l-23.07-6.78v-20.23l23.47,8.09-.4,18.92ZM362.12,337.94l-23.07-6.78v-20.23l23.47,8.09-.4,18.92ZM362.12,291.81l-23.07-6.78v-20.23l23.47,8.09-.4,18.92ZM362.12,245.68l-23.07-6.78v-20.23l23.47,8.09-.4,18.92ZM362.12,199.55l-23.07-6.78v-20.23l23.47,8.09-.4,18.92Z"/>
    <polygon class="cls-7" points="614.95 205.51 751.78 166.51 832.99 205.51 832.99 278.31 746.67 240.68 614.95 278.31 614.95 205.51"/>
    <polygon class="cls-7" points="614.95 337.25 751.78 298.25 832.99 337.25 832.99 410.05 746.67 372.42 614.95 410.05 614.95 337.25"/>
    <polygon class="cls-7" points="700.63 518.18 684.64 501.55 614.95 483.01 614.95 471.5 754.98 430.2 832.99 470.22 832.99 541.58 751.78 502.83 700.63 518.18"/>
    <polygon class="cls-7" points="745.39 561.66 832.99 653.73 832.99 600.02 753.7 561.66 745.39 561.66"/>
  </g>
  <g>
    <g>
      <rect class="cls-9" x="209.96" y="728.35" width="28.42" height="28.42"/>
      <rect class="cls-9" x="243.76" y="728.35" width="28.42" height="28.42"/>
      <rect class="cls-9" x="243.76" y="762.09" width="28.42" height="28.42"/>
      <rect class="cls-9" x="209.96" y="762.09" width="28.42" height="28.42"/>
    </g>
    <g>
      <rect class="cls-9" x="559.04" y="748.78" width="19.08" height="19.08"/>
      <rect class="cls-9" x="581.74" y="748.78" width="19.08" height="19.08"/>
      <rect class="cls-9" x="581.74" y="771.43" width="19.08" height="19.08"/>
      <rect class="cls-9" x="559.04" y="771.43" width="19.08" height="19.08"/>
    </g>
    <g>
      <rect class="cls-9" x="498.9" y="590.25" width="28.42" height="28.42"/>
      <rect class="cls-9" x="532.71" y="590.25" width="28.42" height="28.42"/>
      <rect class="cls-9" x="532.71" y="623.99" width="28.42" height="28.42"/>
      <rect class="cls-9" x="498.9" y="623.99" width="28.42" height="28.42"/>
    </g>
    <polygon class="cls-9" points="614.95 80.39 592.15 69.31 592.15 476.33 614.95 483.01 614.95 80.39"/>
    <polygon class="cls-9" points="569.13 57.38 546.96 46.29 546.96 467.45 569.13 471.72 569.13 57.38"/>
    <polygon class="cls-9" points="930.19 790.51 673.78 522.46 531.83 485.89 424.41 621.77 252.41 593.63 67.62 790.51 100.87 790.51 250.49 627.52 401.39 790.51 507.53 790.51 581.74 711.93 655.88 790.51 686.57 790.51 581.74 676.76 488.99 687.63 441.03 636.47 530.55 522.46 785.04 790.51 930.19 790.51"/>
    <path class="cls-9" d="M498.94,20.72l-114.49,57.97v510.91l27.82,4.03,110.83-136.41V32.65l-24.16-11.94ZM436.5,209.84l7.63-2.79c.6-.22,1.05-.5,1.35-.83.3-.33.45-.84.45-1.54v-49.59c0-.66-.17-1.16-.52-1.49-.35-.33-.77-.58-1.28-.73l-7.63-2.79v-4.07h34.58v4.07l-7.63,2.79c-.51.19-.94.45-1.3.78-.36.33-.54.81-.54,1.44v49.59c0,.69.18,1.22.54,1.56.36.35.8.62,1.3.81l7.63,2.79v4.07h-34.58v-4.07ZM471.08,363.2l-7.63,2.79c-.51.19-.94.45-1.3.78-.36.33-.54.81-.54,1.44v49.59c0,.69.18,1.22.54,1.56.36.35.8.62,1.3.81l7.63,2.79v4.07h-34.58v-4.07l7.63-2.79c.6-.22,1.05-.5,1.35-.83.3-.33.45-.84.45-1.54v-49.59c0-.66-.17-1.16-.52-1.49-.35-.33-.77-.58-1.28-.73l-7.63-2.79v-4.07h34.58v4.07ZM478.26,310.75c-2.15,3.39-5.44,6.13-9.88,8.22-4.44,2.08-10.06,3.13-16.89,3.13-2.34,0-4.94-.21-7.81-.64-2.87-.43-5.75-.97-8.64-1.63s-5.58-1.34-8.08-2.04l-.28-19.94h6.3l2.79,9.05c.16.51.47.97.92,1.4.46.43.86.77,1.21,1.02,1.1.69,2.5,1.41,4.19,2.15,1.69.74,3.45,1.37,5.28,1.87,1.83.51,3.47.76,4.93.76,4.04,0,7.33-.89,9.88-2.68,2.54-1.78,3.81-4.14,3.81-7.08,0-2.68-.81-4.66-2.42-5.92-1.61-1.26-3.84-2.45-6.68-3.55-2.68-1.04-5.33-1.91-7.93-2.6-2.61-.69-5.17-1.53-7.7-2.51-3.92-1.52-7.06-3.76-9.43-6.73-2.37-2.97-3.55-6.71-3.55-11.23,0-4.2,1.24-7.85,3.72-10.96,2.48-3.11,5.73-5.53,9.76-7.25,4.03-1.72,8.36-2.58,13-2.58,2.68,0,5.42.16,8.19.47,2.78.32,5.44.7,7.98,1.16,2.54.46,4.78.92,6.7,1.4v19.23h-6.25l-2.7-8.53c-.16-.47-.46-.92-.9-1.35-.44-.43-.85-.77-1.23-1.02-.6-.38-1.57-.83-2.91-1.35-1.34-.52-2.8-.99-4.38-1.4-1.58-.41-3.06-.62-4.45-.62-3.85,0-6.77.88-8.74,2.63-1.97,1.75-2.96,3.66-2.96,5.71,0,2.21.68,4.1,2.04,5.66,1.36,1.56,3.88,2.96,7.58,4.19,2.53.85,5,1.63,7.44,2.32,2.43.7,5.08,1.61,7.96,2.75,2.37.95,4.56,2.16,6.58,3.62,2.02,1.47,3.65,3.33,4.9,5.59,1.25,2.26,1.87,5.03,1.87,8.31,0,3.92-1.07,7.57-3.22,10.96Z"/>
  </g>
  <g>
    <polygon class="cls-2" points="67.3 845.83 67.3 832.09 932.99 832.09 932.99 873.17 67.3 873.17 67.3 845.83"/>
    <g>
      <path class="cls-4" d="M933.08,865.9c-2.58,1.54-5.75,3.35-6.57,3.75-1.33.64-12.86,3.21-12.86,3.21l-9.53.64-12.81-.32s20.27-1.7,41.76-13.9v6.63Z"/>
      <path class="cls-10" d="M933.08,868.59c-.12.06-.23.12-.35.18-21.01,10.41-41.41,4.39-41.41,4.39,12.6.04,25.69-2.71,35.01-7.28,2.56-1.26,4.77-2.58,6.75-3.97v6.67Z"/>
    </g>
    <g>
      <path class="cls-4" d="M920.94,832.04s-28.91,2.74-55.07,23.45l3.92-7.89s8.42-7.17,9.09-7.38,7.76-3.96,8.42-4.28,11.97-3.42,11.97-3.42l14.19-1.18,7.47.7Z"/>
      <path class="cls-4" d="M806.66,873.17s27.9-2.33,52.94-21.22v3.54s-6.66,7.41-7.77,8.27-8.65,5.24-9.98,5.88-12.86,3.21-12.86,3.21l-9.53.64-12.81-.32Z"/>
      <path class="cls-12" d="M885.92,839.4c-7.9,3.87-12.47,8.42-17.24,13.25h0c-.23.23-.46.46-.7.7l-.77.78c-4.95,5.02-10.13,10.18-19.15,14.65-21.01,10.41-41.41,4.39-41.41,4.39,12.6.04,25.69-2.71,35.01-7.28,7.9-3.87,12.47-8.42,17.24-13.25h0c.23-.23.46-.46.7-.7l.77-.78c4.95-5.02,10.13-10.18,19.15-14.65,21.01-10.41,41.41-4.48,41.41-4.48-12.6-.04-25.69,2.8-35.01,7.36Z"/>
    </g>
    <g>
      <path class="cls-4" d="M836.28,832.04s-28.91,2.74-55.07,23.45l3.92-7.89s8.42-7.17,9.09-7.38,7.76-3.96,8.42-4.28,11.97-3.42,11.97-3.42l14.19-1.18,7.47.7Z"/>
      <path class="cls-4" d="M722,873.17s27.9-2.33,52.94-21.22v3.54s-6.66,7.41-7.77,8.27-8.65,5.24-9.98,5.88-12.86,3.21-12.86,3.21l-9.53.64-12.81-.32Z"/>
      <path class="cls-16" d="M801.27,839.4c-7.9,3.87-12.47,8.42-17.24,13.25h0c-.23.23-.46.46-.7.7l-.77.78c-4.95,5.02-10.13,10.18-19.15,14.65-21.01,10.41-41.41,4.39-41.41,4.39,12.6.04,25.69-2.71,35.01-7.28,7.9-3.87,12.47-8.42,17.24-13.25h0c.23-.23.46-.46.7-.7l.77-.78c4.95-5.02,10.13-10.18,19.15-14.65,21.01-10.41,41.41-4.48,41.41-4.48-12.6-.04-25.69,2.8-35.01,7.36Z"/>
    </g>
    <g>
      <path class="cls-4" d="M751.63,832.04s-28.91,2.74-55.07,23.45l3.92-7.89s8.42-7.17,9.09-7.38,7.76-3.96,8.42-4.28,11.97-3.42,11.97-3.42l14.19-1.18,7.47.7Z"/>
      <path class="cls-4" d="M637.35,873.17s27.9-2.33,52.94-21.22v3.54s-6.66,7.41-7.77,8.27-8.65,5.24-9.98,5.88c-1.33.64-12.86,3.21-12.86,3.21l-9.53.64-12.81-.32Z"/>
      <path class="cls-8" d="M716.61,839.4c-7.9,3.87-12.47,8.42-17.24,13.25h0c-.23.23-.46.46-.7.7l-.77.78c-4.95,5.02-10.13,10.18-19.15,14.65-21.01,10.41-41.41,4.39-41.41,4.39,12.6.04,25.69-2.71,35.01-7.28,7.9-3.87,12.47-8.42,17.24-13.25h0c.23-.23.46-.46.7-.7l.77-.78c4.95-5.02,10.13-10.18,19.15-14.65,21.01-10.41,41.41-4.48,41.41-4.48-12.6-.04-25.69,2.8-35.01,7.36Z"/>
    </g>
    <g>
      <path class="cls-4" d="M666.97,832.04s-28.91,2.74-55.07,23.45l3.92-7.89s8.42-7.17,9.09-7.38,7.76-3.96,8.42-4.28,11.97-3.42,11.97-3.42l14.19-1.18,7.47.7Z"/>
      <path class="cls-4" d="M552.7,873.17s27.9-2.33,52.94-21.22v3.54s-6.66,7.41-7.77,8.27-8.65,5.24-9.98,5.88-12.86,3.21-12.86,3.21l-9.53.64-12.81-.32Z"/>
      <path class="cls-3" d="M631.96,839.4c-7.9,3.87-12.47,8.42-17.24,13.25h0c-.23.23-.46.46-.7.7l-.77.78c-4.95,5.02-10.13,10.18-19.15,14.65-21.01,10.41-41.41,4.39-41.41,4.39,12.6.04,25.69-2.71,35.01-7.28,7.9-3.87,12.47-8.42,17.24-13.25h0c.23-.23.46-.46.7-.7l.77-.78c4.95-5.02,10.13-10.18,19.15-14.65,21.01-10.41,41.41-4.48,41.41-4.48-12.6-.04-25.69,2.8-35.01,7.36Z"/>
    </g>
    <g>
      <path class="cls-4" d="M582.32,832.04s-28.91,2.74-55.07,23.45l3.92-7.89s8.42-7.17,9.09-7.38,7.76-3.96,8.42-4.28,11.97-3.42,11.97-3.42l14.19-1.18,7.47.7Z"/>
      <path class="cls-4" d="M468.04,873.17s27.9-2.33,52.94-21.22v3.54s-6.66,7.41-7.77,8.27-8.65,5.24-9.98,5.88c-1.33.64-12.86,3.21-12.86,3.21l-9.53.64-12.81-.32Z"/>
      <path class="cls-11" d="M547.3,839.4c-7.9,3.87-12.47,8.42-17.24,13.25h0c-.23.23-.46.46-.7.7l-.77.78c-4.95,5.02-10.13,10.18-19.15,14.65-21.01,10.41-41.41,4.39-41.41,4.39,12.6.04,25.69-2.71,35.01-7.28,7.9-3.87,12.47-8.42,17.24-13.25h0c.23-.23.46-.46.7-.7l.77-.78c4.95-5.02,10.13-10.18,19.15-14.65,21.01-10.41,41.41-4.48,41.41-4.48-12.6-.04-25.69,2.8-35.01,7.36Z"/>
    </g>
    <g>
      <path class="cls-4" d="M497.66,832.04s-28.91,2.74-55.07,23.45l3.92-7.89s8.42-7.17,9.09-7.38,7.76-3.96,8.42-4.28,11.97-3.42,11.97-3.42l14.19-1.18,7.47.7Z"/>
      <path class="cls-4" d="M383.39,873.17s27.9-2.33,52.94-21.22v3.54s-6.66,7.41-7.77,8.27-8.65,5.24-9.98,5.88c-1.33.64-12.86,3.21-12.86,3.21l-9.53.64-12.81-.32Z"/>
      <path class="cls-14" d="M462.65,839.4c-7.9,3.87-12.47,8.42-17.24,13.25h0c-.23.23-.46.46-.7.7l-.77.78c-4.95,5.02-10.13,10.18-19.15,14.65-21.01,10.41-41.41,4.39-41.41,4.39,12.6.04,25.69-2.71,35.01-7.28,7.9-3.87,12.47-8.42,17.24-13.25h0c.23-.23.46-.46.7-.7l.77-.78c4.95-5.02,10.13-10.18,19.15-14.65,21.01-10.41,41.41-4.48,41.41-4.48-12.6-.04-25.69,2.8-35.01,7.36Z"/>
    </g>
    <g>
      <path class="cls-4" d="M413.01,832.04s-28.91,2.74-55.07,23.45l3.92-7.89s8.42-7.17,9.09-7.38,7.76-3.96,8.42-4.28,11.97-3.42,11.97-3.42l14.19-1.18,7.47.7Z"/>
      <path class="cls-4" d="M298.73,873.17s27.9-2.33,52.94-21.22v3.54s-6.66,7.41-7.77,8.27-8.65,5.24-9.98,5.88c-1.33.64-12.86,3.21-12.86,3.21l-9.53.64-12.81-.32Z"/>
      <path class="cls-13" d="M377.99,839.4c-7.9,3.87-12.47,8.42-17.24,13.25h0c-.23.23-.46.46-.7.7l-.77.78c-4.95,5.02-10.13,10.18-19.15,14.65-21.01,10.41-41.41,4.39-41.41,4.39,12.6.04,25.69-2.71,35.01-7.28,7.9-3.87,12.47-8.42,17.24-13.25h0c.23-.23.46-.46.7-.7l.77-.78c4.95-5.02,10.13-10.18,19.15-14.65,21.01-10.41,41.41-4.48,41.41-4.48-12.6-.04-25.69,2.8-35.01,7.36Z"/>
    </g>
    <g>
      <path class="cls-4" d="M328.35,832.04s-28.91,2.74-55.07,23.45l3.92-7.89s8.42-7.17,9.09-7.38,7.76-3.96,8.42-4.28,11.97-3.42,11.97-3.42l14.19-1.18,7.47.7Z"/>
      <path class="cls-4" d="M214.08,873.17s27.9-2.33,52.94-21.22v3.54s-6.66,7.41-7.77,8.27-8.65,5.24-9.98,5.88-12.86,3.21-12.86,3.21l-9.53.64-12.81-.32Z"/>
      <path class="cls-15" d="M293.34,839.4c-7.9,3.87-12.47,8.42-17.24,13.25h0c-.23.23-.46.46-.7.7l-.77.78c-4.95,5.02-10.13,10.18-19.15,14.65-21.01,10.41-41.41,4.39-41.41,4.39,12.6.04,25.69-2.71,35.01-7.28,7.9-3.87,12.47-8.42,17.24-13.25h0c.23-.23.46-.46.7-.7l.77-.78c4.95-5.02,10.13-10.18,19.15-14.65,21.01-10.41,41.41-4.48,41.41-4.48-12.6-.04-25.69,2.8-35.01,7.36Z"/>
    </g>
    <g>
      <path class="cls-4" d="M243.7,832.04s-28.91,2.74-55.07,23.45l3.92-7.89s8.42-7.17,9.09-7.38,7.76-3.96,8.42-4.28,11.97-3.42,11.97-3.42l14.19-1.18,7.47.7Z"/>
      <path class="cls-4" d="M129.42,873.17s27.9-2.33,52.94-21.22v3.54s-6.66,7.41-7.77,8.27-8.65,5.24-9.98,5.88c-1.33.64-12.86,3.21-12.86,3.21l-9.53.64-12.81-.32Z"/>
      <path class="cls-5" d="M208.69,839.4c-7.9,3.87-12.47,8.42-17.24,13.25h0c-.23.23-.46.46-.7.7l-.77.78c-4.95,5.02-10.13,10.18-19.15,14.65-21.01,10.41-41.41,4.39-41.41,4.39,12.6.04,25.69-2.71,35.01-7.28,7.9-3.87,12.47-8.42,17.24-13.25h0c.23-.23.46-.46.7-.7l.77-.78c4.95-5.02,10.13-10.18,19.15-14.65,21.01-10.41,41.41-4.48,41.41-4.48-12.6-.04-25.69,2.8-35.01,7.36Z"/>
    </g>
    <g>
      <path class="cls-4" d="M159.04,832.04s-28.91,2.74-55.07,23.45l3.92-7.89s8.42-7.17,9.09-7.38,7.76-3.96,8.42-4.28,11.97-3.42,11.97-3.42l14.19-1.18,7.47.7Z"/>
      <path class="cls-4" d="M67.3,867.91c9.17-3.15,20.03-8.13,30.41-15.96v3.54s-6.66,7.41-7.77,8.27-8.65,5.24-9.98,5.88c-1.23.59-11.19,2.84-12.67,3.17v-4.9Z"/>
      <path class="cls-1" d="M67.3,870.37c4.57-1.17,8.82-2.68,12.48-4.48,7.9-3.87,12.47-8.42,17.24-13.25h0c.23-.23.46-.46.7-.7l.77-.78c4.95-5.02,10.13-10.18,19.15-14.65,21.01-10.41,41.41-4.48,41.41-4.48-12.6-.04-25.69,2.8-35.01,7.36-7.9,3.87-12.47,8.42-17.24,13.25h0c-.23.23-.46.46-.7.7l-.77.78c-4.95,5.02-10.13,10.18-19.15,14.65-4.12,2.04-8.21,3.45-12.13,4.39-2.32.56-6.75-2.8-6.75-2.8Z"/>
    </g>
    <ellipse class="cls-7" cx="932.7" cy="852.63" rx="8.7" ry="20.54"/>
    <ellipse class="cls-7" cx="67.3" cy="852.63" rx="8.7" ry="20.54"/>
  </g>
</svg>