<?xml version="1.0" standalone="no"?>
<!DOCTYPE svg PUBLIC "-//W3C//DTD SVG 20010904//EN"
 "http://www.w3.org/TR/2001/REC-SVG-20010904/DTD/svg10.dtd">
<svg version="1.0" xmlns="http://www.w3.org/2000/svg"
 width="700.000000pt" height="700.000000pt" viewBox="0 0 700.000000 700.000000"
 preserveAspectRatio="xMidYMid meet">
<metadata>
Created by potrace 1.14, written by Peter Selinger 2001-2017
</metadata>
<g transform="translate(0.000000,700.000000) scale(0.100000,-0.100000)"
fill="#000000" stroke="none">
<path d="M3064 6501 l-429 -218 -5 -310 -5 -310 -150 44 c-82 23 -190 54 -240
67 -49 14 -184 52 -298 85 l-209 60 -61 -33 c-34 -18 -98 -52 -142 -76 -309
-164 -545 -293 -546 -298 -3 -21 -3 -3522 0 -3522 2 0 33 30 68 68 280 297
451 478 481 510 27 29 35 32 69 27 21 -3 52 -7 68 -9 17 -2 57 -9 90 -14 33
-6 78 -14 100 -17 23 -3 52 -7 65 -10 13 -3 42 -7 65 -10 65 -10 66 -10 530
-85 66 -11 140 -22 165 -25 25 -3 56 -7 70 -10 92 -18 80 -24 171 88 45 56 85
104 88 107 4 3 42 50 86 105 44 55 82 102 85 105 3 3 23 28 45 55 22 28 45 57
52 65 7 8 95 117 196 241 102 125 189 235 194 245 7 14 11 3113 4 3191 -1 7
-41 33 -89 57 l-88 44 -430 -217z m209 -730 c19 -2 3 -29 -25 -42 l-33 -14 -3
-197 -2 -198 35 -14 c19 -8 35 -22 35 -30 0 -12 -23 -14 -130 -14 -71 0 -130
3 -130 6 0 13 15 27 44 42 l29 15 -1 140 c-1 281 3 252 -37 266 -33 12 -46 34
-25 41 8 2 216 2 243 -1z m-1245 -131 l72 -24 0 -73 c0 -80 3 -78 -79 -49 -24
9 -52 16 -62 16 -26 0 -35 26 -33 90 2 82 2 84 17 73 6 -5 45 -20 85 -33z
m350 -97 c43 -15 79 -30 82 -34 3 -4 5 -36 4 -71 -1 -68 4 -64 -59 -54 -5 1
-15 4 -20 8 -6 3 -27 9 -48 13 -20 4 -39 10 -42 14 -4 7 -9 111 -6 139 1 16 1
16 89 -15z m-361 -246 c40 -13 76 -26 79 -30 7 -7 6 -128 -1 -135 -4 -4 -81
13 -115 25 -8 4 -21 7 -27 9 -16 3 -48 34 -36 34 11 0 11 100 0 117 -9 14 2
12 100 -20z m383 -109 l65 -24 0 -59 c0 -33 -1 -65 -3 -71 -2 -7 -31 -3 -84
13 -45 13 -83 25 -84 26 -3 3 -7 115 -5 136 1 16 21 12 111 -21z m908 -223
c20 -5 22 -11 22 -80 0 -72 -1 -75 -22 -72 -16 3 -26 15 -34 38 -29 89 -204
91 -204 3 0 -32 37 -57 133 -88 56 -18 96 -38 116 -58 82 -80 32 -215 -92
-249 -46 -13 -178 -6 -239 11 l-38 11 0 74 c0 73 1 75 25 75 20 0 25 -6 31
-36 7 -40 31 -59 96 -78 53 -16 99 -5 127 30 41 52 -4 98 -134 133 -61 16
-105 48 -121 86 -41 100 14 184 138 209 57 11 117 9 196 -9z m-1324 -3 c6 -5
35 -15 64 -23 l52 -13 0 -73 c0 -40 -4 -73 -8 -73 -5 0 -45 11 -89 25 l-79 25
1 63 c1 34 -3 67 -7 74 -11 14 47 9 66 -5z m479 -200 c-2 -100 2 -92 -40 -77
-21 8 -59 19 -85 26 l-46 13 -4 55 c-2 31 -2 66 0 78 l3 22 87 -30 87 -31 -2
-56z m-452 -158 c41 -14 78 -29 83 -34 8 -8 10 -129 2 -137 -2 -3 -24 2 -48
10 -23 8 -61 20 -83 26 l-40 11 0 75 c0 41 2 75 6 75 3 0 39 -12 80 -26z m377
-106 c69 -22 80 -35 76 -93 -1 -22 -3 -48 -3 -59 -1 -13 -6 -17 -18 -13 -10 3
-47 14 -83 25 l-65 19 -5 49 c-7 73 -1 107 19 99 9 -4 44 -16 79 -27z m-287
-280 c-1 -5 -1 -37 -1 -72 l0 -63 -52 14 c-78 19 -118 34 -119 41 -1 4 -2 39
-3 78 l-2 70 89 -30 c48 -17 88 -34 88 -38z m279 -66 l85 -27 -1 -68 c-1 -38
-3 -70 -5 -71 -4 -4 -158 39 -164 45 -6 7 -9 149 -2 149 1 0 40 -13 87 -28z
m900 0 c0 -13 -11 -22 -32 -28 l-33 -10 0 -199 0 -200 33 -14 c19 -9 32 -21
30 -30 -2 -12 -23 -14 -110 -14 -60 1 -117 2 -128 2 -32 2 -23 25 16 41 l37
15 -1 190 c-1 105 -1 194 -1 198 -1 4 -17 15 -36 23 -19 8 -35 21 -35 28 0 11
26 14 130 15 121 1 130 0 130 -17z m-1181 -278 c5 -5 2 -127 -4 -133 -3 -2
-42 7 -87 21 l-83 24 0 65 c-1 35 1 69 3 76 2 7 30 1 85 -19 45 -16 84 -31 86
-34z m266 -63 c111 -42 102 -31 99 -108 -1 -40 -7 -67 -13 -66 -36 8 -155 43
-158 47 -3 3 -6 113 -4 139 1 11 23 8 76 -12z m-271 -282 c8 -7 10 -128 2
-136 -6 -6 -160 40 -167 49 -3 5 -5 31 -4 58 1 30 -3 50 -9 50 -6 0 -4 5 4 10
8 5 11 10 7 10 -5 0 -6 4 -2 9 5 9 151 -34 169 -50z m291 -73 l81 -28 -2 -64
c0 -35 -4 -67 -7 -70 -3 -3 -42 5 -87 18 l-82 24 -1 77 c-1 48 2 76 8 74 6 -2
46 -16 90 -31z m-370 -243 c44 -15 82 -30 85 -34 3 -4 4 -36 2 -72 -4 -73 3
-69 -87 -44 -73 20 -95 34 -88 54 5 12 3 14 -8 8 -11 -7 -12 -6 -3 6 6 8 10
35 9 62 0 26 1 47 4 47 4 0 42 -12 86 -27z m362 -102 c44 -17 83 -28 85 -25 3
2 3 -28 2 -67 -2 -39 -5 -73 -7 -75 -4 -5 -148 36 -159 45 -8 7 -15 151 -7
151 3 0 42 -13 86 -29z m-358 -248 l81 -26 0 -73 0 -73 -67 20 c-38 11 -77 22
-88 25 -18 4 -20 14 -20 79 -1 41 2 75 6 75 4 0 44 -12 88 -27z m320 -88 c23
-8 42 -14 44 -14 1 0 15 -4 30 -10 16 -6 33 -11 38 -11 10 0 11 0 13 -81 0
-33 -2 -63 -5 -65 -4 -2 -26 3 -50 11 -23 9 -56 18 -73 21 -17 3 -34 8 -38 12
-5 6 -12 114 -9 145 1 9 2 9 50 -8z"/>
<path d="M3854 4936 l0 -1584 60 -12 c34 -6 71 -14 84 -17 l22 -5 -2 1562 -3
1563 -61 32 c-34 18 -70 36 -81 39 -19 6 -19 -24 -19 -1578z"/>
<path d="M4195 4818 l0 -1532 60 -19 c54 -16 240 -67 533 -144 101 -27 104
-29 164 -91 48 -50 65 -61 82 -56 68 20 154 46 251 76 l111 34 126 -60 c69
-34 164 -79 209 -100 46 -22 124 -59 173 -83 49 -24 93 -43 98 -43 4 0 7 119
6 266 l-3 267 -95 49 c-52 27 -183 95 -291 150 l-197 100 -123 -36 c-68 -20
-176 -51 -239 -70 -567 -167 -676 -198 -684 -200 -5 0 -9 98 -10 228 l0 230
289 83 c160 46 322 92 360 103 39 10 126 35 195 55 69 20 134 37 145 37 11 0
159 -61 330 -136 170 -75 313 -136 317 -136 5 0 8 121 8 270 0 269 0 269 -22
282 -29 15 -382 185 -503 242 l-90 42 -255 -72 c-140 -40 -268 -77 -285 -82
-37 -11 -61 -18 -290 -82 -99 -28 -184 -52 -190 -54 -6 -2 -10 77 -10 224 0
126 3 226 7 224 4 -3 228 59 497 136 l490 140 321 -140 c176 -77 323 -140 325
-140 3 0 5 123 5 273 l0 273 -102 49 c-57 27 -191 91 -298 143 -107 52 -204
94 -215 95 -11 0 -243 -63 -515 -141 -273 -78 -500 -142 -505 -142 -6 0 -10
172 -9 469 l0 468 -83 42 c-46 22 -85 41 -86 41 -2 0 -3 -689 -2 -1532z"/>
<path d="M3588 3023 c-81 -103 -245 -312 -365 -464 -120 -151 -234 -296 -253
-322 -37 -49 -42 -50 -130 -32 -14 3 -45 8 -70 11 -25 3 -54 8 -65 10 -11 2
-90 15 -175 29 -192 32 -175 29 -355 59 -82 14 -168 28 -190 31 -22 3 -51 8
-65 10 -14 3 -41 7 -60 10 -19 3 -46 7 -60 10 -14 3 -38 7 -55 9 -16 2 -48 7
-71 11 -40 6 -42 5 -99 -57 -54 -58 -270 -289 -340 -363 -57 -60 -283 -300
-315 -335 -44 -47 -266 -284 -366 -390 -44 -47 -114 -121 -156 -165 -113 -120
-147 -159 -143 -163 2 -2 57 -4 122 -3 l118 0 34 38 c29 32 97 106 256 278 15
17 64 70 109 119 44 49 92 101 106 116 14 15 66 71 115 125 50 54 117 127 149
162 32 35 66 72 75 82 15 17 141 155 240 261 l41 45 48 -51 c26 -27 94 -101
152 -164 58 -62 119 -128 135 -146 26 -27 201 -216 230 -248 6 -6 42 -45 80
-86 39 -42 124 -134 190 -205 66 -72 150 -161 186 -200 36 -38 77 -83 91 -99
l25 -28 399 0 399 1 90 94 c97 101 341 359 421 445 l50 54 63 -69 c61 -65 225
-239 411 -435 l85 -90 108 0 c60 0 110 2 113 4 2 2 -19 28 -47 58 -28 30 -72
78 -97 105 -26 28 -94 102 -152 165 -58 63 -131 142 -162 175 -31 33 -66 71
-78 85 -12 14 -61 68 -110 120 -49 52 -97 105 -108 118 -26 29 -31 30 -204 7
-13 -2 -50 -6 -83 -10 -33 -4 -67 -8 -75 -10 -8 -1 -49 -6 -90 -10 -41 -4 -83
-9 -94 -11 -10 -2 -51 -6 -90 -10 -39 -3 -74 -8 -77 -10 -8 -4 -368 374 -369
386 0 3 89 118 198 256 108 138 209 266 224 285 46 59 192 244 220 280 l27 34
93 -96 c51 -52 127 -131 168 -175 41 -44 150 -158 242 -254 91 -96 185 -195
208 -220 41 -44 97 -103 299 -316 343 -359 422 -443 451 -474 18 -19 99 -105
180 -190 81 -85 176 -186 212 -223 l64 -68 538 0 c296 0 540 2 543 5 3 3 -37
49 -89 103 -88 91 -207 215 -358 373 -140 147 -408 427 -450 471 -25 25 -111
115 -192 200 -80 85 -179 188 -220 230 -40 42 -145 152 -233 244 -88 92 -209
219 -270 281 l-110 114 -235 60 c-129 33 -359 92 -510 132 -151 39 -286 73
-300 75 -22 3 -42 -18 -172 -184z"/>
<path d="M5372 2642 c-21 -3 -13 -14 72 -100 52 -53 103 -106 113 -118 10 -12
91 -97 179 -190 89 -93 184 -193 211 -221 27 -29 53 -53 56 -53 4 0 6 89 5
197 l-3 197 -65 33 c-105 53 -462 224 -505 242 -22 9 -50 15 -63 13z"/>
<path d="M3496 2423 c-3 -4 -6 -53 -6 -110 l0 -104 108 3 107 3 0 105 0 105
-102 2 c-56 1 -104 -1 -107 -4z"/>
<path d="M3747 2421 c-2 -5 0 -172 2 -201 1 -7 39 -10 106 -9 l105 1 0 109 0
109 -105 -1 c-58 -1 -107 -4 -108 -8z"/>
<path d="M3507 2172 c-15 -3 -17 -18 -17 -108 0 -92 2 -104 18 -105 80 -2 183
0 189 4 5 3 9 52 8 108 l0 102 -91 1 c-50 1 -98 0 -107 -2z"/>
<path d="M3752 2166 c-9 -15 -9 -197 1 -203 7 -4 92 -6 187 -3 19 0 20 7 20
105 0 102 -1 105 -22 105 -13 1 -58 2 -101 3 -44 1 -81 -2 -85 -7z"/>
<path d="M1317 1382 c-2 -4 -3 -52 -3 -107 l1 -100 108 -3 107 -3 0 109 0 108
-105 1 c-57 1 -106 -1 -108 -5z"/>
<path d="M1570 1279 l0 -110 107 3 108 3 0 85 c1 137 10 126 -111 127 l-104 1
0 -109z"/>
<path d="M3975 1232 l-31 -3 0 -69 1 -70 72 0 73 0 0 70 c0 39 -3 70 -7 71
-26 3 -82 4 -108 1z"/>
<path d="M4119 1225 c-1 -5 -2 -38 -3 -72 l-1 -63 73 0 73 0 -3 72 -3 72 -67
1 c-38 0 -69 -4 -69 -10z"/>
<path d="M1360 1130 l-45 -5 0 -97 c0 -53 3 -99 7 -103 6 -6 87 -9 181 -6 l28
1 -3 106 -3 106 -60 2 c-33 0 -80 -1 -105 -4z"/>
<path d="M1622 1132 l-53 -3 3 -106 3 -106 105 0 105 0 0 107 1 106 -26 1
c-14 0 -38 1 -55 2 -16 1 -54 1 -83 -1z"/>
<path d="M3950 1055 c-9 -11 -8 -121 2 -130 3 -3 28 -6 54 -6 92 -1 85 -7 82
73 l-3 71 -63 1 c-35 1 -67 -3 -72 -9z"/>
<path d="M4127 1060 c-13 -5 -18 -123 -5 -135 3 -4 35 -7 70 -7 l63 -1 3 74 3
74 -61 0 c-33 0 -66 -2 -73 -5z"/>
<path d="M756 613 c-4 -4 -124 -7 -268 -8 l-261 0 -19 -25 c-32 -43 -42 -130
-23 -204 21 -83 10 -80 312 -83 148 -2 297 -4 333 -3 325 1 540 1 620 1 52 -1
196 -1 320 0 124 0 270 0 325 0 145 0 523 0 645 0 58 0 204 0 325 0 121 0 265
0 320 0 55 0 195 0 310 0 116 0 260 0 320 0 97 0 235 0 625 0 58 0 202 0 320
0 118 0 262 0 320 0 58 0 202 0 320 0 118 0 260 0 315 0 55 0 199 0 320 0 121
0 258 0 305 -1 143 -3 229 5 247 22 49 50 47 237 -4 280 -18 15 -101 21 -243
19 -52 -1 -192 -2 -310 -2 -118 1 -262 1 -320 1 -174 0 -498 0 -620 0 -63 0
-207 0 -320 0 -113 0 -257 -1 -320 0 -63 0 -207 0 -320 0 -275 -1 -404 0 -670
1 -124 1 -256 1 -295 0 -38 0 -182 0 -320 0 -137 0 -281 0 -320 0 -38 0 -182
0 -320 0 -137 1 -279 1 -315 0 -36 0 -177 0 -315 0 -137 0 -290 0 -340 -1
-203 -3 -515 -1 -591 4 -45 3 -84 3 -88 -1z"/>
</g>
</svg>
