<svg id="Layer_1" data-name="Layer 1" xmlns="http://www.w3.org/2000/svg" xmlns:xlink="http://www.w3.org/1999/xlink" viewBox="0 0 80 80"><defs><linearGradient id="linear-gradient" x1="122.03" y1="-38.34" x2="122.03" y2="-45.72" gradientTransform="matrix(0 -1 -1 0 -2.03 162.03)" gradientUnits="userSpaceOnUse"><stop offset="0" stop-color="#45474b"/><stop offset=".12" stop-color="#4e505a"/><stop offset=".37" stop-color="#5d6174"/><stop offset=".52" stop-color="#63687e"/><stop offset=".64" stop-color="#606479"/><stop offset=".79" stop-color="#575b6a"/><stop offset=".95" stop-color="#4a4c53"/><stop offset="1" stop-color="#45474b"/></linearGradient><linearGradient id="linear-gradient-18" x1="93.39" y1="-12.69" x2="93.39" y2="-19.94" gradientTransform="matrix(1 0 0 -1 -86.93 24.79)" xlink:href="#linear-gradient-2"/><linearGradient id="linear-gradient-3" x1="145.98" y1="-39.51" x2="145.98" y2="-46.76" xlink:href="#linear-gradient-2"/><linearGradient id="linear-gradient-4" x1="136.4" y1="-39.51" x2="136.4" y2="-46.76" xlink:href="#linear-gradient-2"/><linearGradient id="linear-gradient-5" x1="126.82" y1="-39.51" x2="126.82" y2="-46.76" xlink:href="#linear-gradient-2"/><linearGradient id="linear-gradient-6" x1="117.24" y1="-39.51" x2="117.24" y2="-46.76" xlink:href="#linear-gradient-2"/><linearGradient id="linear-gradient-7" x1="107.66" y1="-39.51" x2="107.66" y2="-46.76" xlink:href="#linear-gradient-2"/><linearGradient id="linear-gradient-8" x1="98.08" y1="-39.51" x2="98.08" y2="-46.76" xlink:href="#linear-gradient-2"/><linearGradient id="linear-gradient-9" x1="88.49" y1="-39.51" x2="88.49" y2="-46.76" xlink:href="#linear-gradient-2"/><linearGradient id="linear-gradient-2" x1="155.56" y1="-39.51" x2="155.56" y2="-46.76" gradientTransform="matrix(0 -1 -1 0 -2.03 162.03)" gradientUnits="userSpaceOnUse"><stop offset="0" stop-color="#191b21"/><stop offset=".22" stop-color="#404351"/><stop offset=".43" stop-color="#62667c"/><stop offset=".6" stop-color="#777c96"/><stop offset=".7" stop-color="#7f84a0"/><stop offset=".75" stop-color="#7b7f9b"/><stop offset=".82" stop-color="#70738c"/><stop offset=".88" stop-color="#5e6075"/><stop offset=".95" stop-color="#454454"/><stop offset="1" stop-color="#302d39"/></linearGradient><linearGradient id="linear-gradient-10" x1="126.93" y1="-11.52" x2="126.93" y2="-18.9" gradientTransform="matrix(1 0 0 -1 -86.93 24.79)" xlink:href="#linear-gradient"/><linearGradient id="linear-gradient-11" x1="160.46" y1="-12.69" x2="160.46" y2="-19.94" gradientTransform="matrix(1 0 0 -1 -86.93 24.79)" xlink:href="#linear-gradient-2"/><linearGradient id="linear-gradient-12" x1="150.88" y1="-12.69" x2="150.88" y2="-19.94" gradientTransform="matrix(1 0 0 -1 -86.93 24.79)" xlink:href="#linear-gradient-2"/><linearGradient id="linear-gradient-13" x1="141.3" y1="-12.69" x2="141.3" y2="-19.94" gradientTransform="matrix(1 0 0 -1 -86.93 24.79)" xlink:href="#linear-gradient-2"/><linearGradient id="linear-gradient-14" x1="131.72" y1="-12.69" x2="131.72" y2="-19.94" gradientTransform="matrix(1 0 0 -1 -86.93 24.79)" xlink:href="#linear-gradient-2"/><linearGradient id="linear-gradient-15" x1="122.14" y1="-12.69" x2="122.14" y2="-19.94" gradientTransform="matrix(1 0 0 -1 -86.93 24.79)" xlink:href="#linear-gradient-2"/><linearGradient id="linear-gradient-16" x1="112.56" y1="-12.69" x2="112.56" y2="-19.94" gradientTransform="matrix(1 0 0 -1 -86.93 24.79)" xlink:href="#linear-gradient-2"/><linearGradient id="linear-gradient-17" x1="102.98" y1="-12.69" x2="102.98" y2="-19.94" gradientTransform="matrix(1 0 0 -1 -86.93 24.79)" xlink:href="#linear-gradient-2"/><filter id="drop-shadow-1" filterUnits="userSpaceOnUse"><feOffset dy=".5"/><feGaussianBlur result="blur" stdDeviation=".5"/><feFlood flood-color="#000" flood-opacity=".75"/><feComposite in2="blur" operator="in"/><feComposite in="SourceGraphic"/></filter><style>.cls-5{stroke-width:0;fill:#131417}</style></defs><path style="fill:url(#linear-gradient);stroke-width:0" d="M36.31 0h7.38v80h-7.38z"/><path class="cls-5" d="M36.3 0s.49 3.27 4.21 6.23l-1.42-.44s-1.29-.95-1.33-1.03-.71-.88-.77-.95-.61-1.35-.61-1.35L36.17.85 36.3 0zM43.69 12.93s-.42-3.16-3.81-5.99h.64s1.33.75 1.49.88.94.98 1.06 1.13.58 1.46.58 1.46l.12 1.08-.06 1.45z"/><path d="M37.62 3.96c.7.89 1.51 1.41 2.38 1.95s.08.05.13.08l.14.09c.9.56 1.83 1.15 2.63 2.17 1.87 2.38.79 4.69.79 4.69 0-1.43-.49-2.91-1.31-3.96-.7-.89-1.51-1.41-2.38-1.95s-.08-.05-.13-.08l-.14-.09c-.9-.56-1.83-1.15-2.63-2.17C35.24 2.31 36.3 0 36.3 0c0 1.43.5 2.91 1.32 3.96z" style="fill:url(#linear-gradient-2);stroke-width:0"/><path class="cls-5" d="M36.3 9.58s.49 3.27 4.21 6.23l-1.42-.44s-1.29-.95-1.33-1.03-.71-.88-.77-.95-.61-1.35-.61-1.35l-.21-1.61.13-.85zM43.69 22.51s-.42-3.16-3.81-5.99h.64s1.33.75 1.49.88.94.98 1.06 1.13.58 1.46.58 1.46l.12 1.08-.06 1.45z"/><path d="M37.62 13.54c.7.89 1.51 1.41 2.38 1.95s.08.05.13.08l.14.09c.9.56 1.83 1.15 2.63 2.17 1.87 2.38.79 4.69.79 4.69 0-1.43-.49-2.91-1.31-3.96-.7-.89-1.51-1.41-2.38-1.95s-.08-.05-.13-.08l-.14-.09c-.9-.56-1.83-1.15-2.63-2.17-1.87-2.38-.8-4.69-.8-4.69 0 1.43.5 2.91 1.32 3.96z" style="fill:url(#linear-gradient-3);stroke-width:0"/><path class="cls-5" d="M36.3 19.16s.49 3.27 4.21 6.23l-1.42-.44s-1.29-.95-1.33-1.03-.71-.88-.77-.95-.61-1.35-.61-1.35l-.21-1.61.13-.85zM43.69 32.1s-.42-3.16-3.81-5.99h.64s1.33.75 1.49.88.94.98 1.06 1.13.58 1.46.58 1.46l.12 1.08-.06 1.45z"/><path d="M37.62 23.12c.7.89 1.51 1.41 2.38 1.95s.08.05.13.08l.14.09c.9.56 1.83 1.15 2.63 2.17 1.87 2.38.79 4.69.79 4.69 0-1.43-.49-2.91-1.31-3.96-.7-.89-1.51-1.41-2.38-1.95s-.08-.05-.13-.08l-.14-.09c-.9-.56-1.83-1.15-2.63-2.17-1.87-2.38-.8-4.69-.8-4.69 0 1.43.5 2.91 1.32 3.96z" style="fill:url(#linear-gradient-4);stroke-width:0"/><g><path class="cls-5" d="M36.3 28.74s.49 3.27 4.21 6.23l-1.42-.44s-1.29-.95-1.33-1.03-.71-.88-.77-.95-.61-1.35-.61-1.35l-.21-1.61.13-.85zM43.69 41.68s-.42-3.16-3.81-5.99h.64s1.33.75 1.49.88.94.98 1.06 1.13.58 1.46.58 1.46l.12 1.08-.06 1.45z"/><path d="M37.62 32.71c.7.89 1.51 1.41 2.38 1.95s.08.05.13.08l.14.09c.9.56 1.83 1.15 2.63 2.17 1.87 2.38.79 4.69.79 4.69 0-1.43-.49-2.91-1.31-3.96-.7-.89-1.51-1.41-2.38-1.95s-.08-.05-.13-.08l-.14-.09c-.9-.56-1.83-1.15-2.63-2.17-1.87-2.38-.8-4.69-.8-4.69 0 1.43.5 2.91 1.32 3.96z" style="fill:url(#linear-gradient-5);stroke-width:0"/></g><g><path class="cls-5" d="M36.3 38.32s.49 3.27 4.21 6.23l-1.42-.44s-1.29-.95-1.33-1.03-.71-.88-.77-.95-.61-1.35-.61-1.35l-.21-1.61.13-.85zM43.69 51.26s-.42-3.16-3.81-5.99h.64s1.33.75 1.49.88.94.98 1.06 1.13.58 1.46.58 1.46l.12 1.08-.06 1.45z"/><path d="M37.62 42.29c.7.89 1.51 1.41 2.38 1.95s.08.05.13.08l.14.09c.9.56 1.83 1.15 2.63 2.17 1.87 2.38.79 4.69.79 4.69 0-1.43-.49-2.91-1.31-3.96-.7-.89-1.51-1.41-2.38-1.95s-.08-.05-.13-.08l-.14-.09c-.9-.56-1.83-1.15-2.63-2.17-1.87-2.38-.8-4.69-.8-4.69 0 1.43.5 2.91 1.32 3.96z" style="fill:url(#linear-gradient-6);stroke-width:0"/></g><g><path class="cls-5" d="M36.3 47.9s.49 3.27 4.21 6.23l-1.42-.44s-1.29-.95-1.33-1.03-.71-.88-.77-.95-.61-1.35-.61-1.35l-.21-1.61.13-.85zM43.69 60.84s-.42-3.16-3.81-5.99h.64s1.33.75 1.49.88.94.98 1.06 1.13.58 1.46.58 1.46l.12 1.08-.06 1.45z"/><path d="M37.62 51.87c.7.89 1.51 1.41 2.38 1.95s.08.05.13.08l.14.09c.9.56 1.83 1.15 2.63 2.17 1.87 2.38.79 4.69.79 4.69 0-1.43-.49-2.91-1.31-3.96-.7-.89-1.51-1.41-2.38-1.95s-.08-.05-.13-.08l-.14-.09c-.9-.56-1.83-1.15-2.63-2.17-1.87-2.38-.8-4.69-.8-4.69 0 1.43.5 2.91 1.32 3.96z" style="fill:url(#linear-gradient-7);stroke-width:0"/></g><g><path class="cls-5" d="M36.3 57.49s.49 3.27 4.21 6.23l-1.42-.44s-1.29-.95-1.33-1.03-.71-.88-.77-.95-.61-1.35-.61-1.35l-.21-1.61.13-.85zM43.69 70.42s-.42-3.16-3.81-5.99h.64s1.33.75 1.49.88.94.98 1.06 1.13.58 1.46.58 1.46l.12 1.08-.06 1.45z"/><path d="M37.62 61.45c.7.89 1.51 1.41 2.38 1.95s.08.05.13.08l.14.09c.9.56 1.83 1.15 2.63 2.17 1.87 2.38.79 4.69.79 4.69 0-1.43-.49-2.91-1.31-3.96-.7-.89-1.51-1.41-2.38-1.95s-.08-.05-.13-.08l-.14-.09c-.9-.56-1.83-1.15-2.63-2.17-1.87-2.38-.8-4.69-.8-4.69 0 1.43.5 2.91 1.32 3.96z" style="fill:url(#linear-gradient-8);stroke-width:0"/></g><g><path class="cls-5" d="M36.3 67.07s.49 3.27 4.21 6.23l-1.42-.44s-1.29-.95-1.33-1.03-.71-.88-.77-.95-.61-1.35-.61-1.35l-.21-1.61.13-.85zM43.69 80s-.42-3.16-3.81-5.99h.64s1.33.75 1.49.88.94.98 1.06 1.13.58 1.46.58 1.46l.12 1.08-.06 1.45z"/><path d="M37.62 71.03c.7.89 1.51 1.41 2.38 1.95s.08.05.13.08l.14.09c.9.56 1.83 1.15 2.63 2.17 1.87 2.38.79 4.69.79 4.69 0-1.43-.49-2.91-1.31-3.96-.7-.89-1.51-1.41-2.38-1.95s-.08-.05-.13-.08l-.14-.09c-.9-.56-1.83-1.15-2.63-2.17-1.87-2.38-.8-4.69-.8-4.69 0 1.43.5 2.91 1.32 3.96z" style="fill:url(#linear-gradient-9);stroke-width:0"/></g><g style="filter:url(#drop-shadow-1)"><path style="fill:url(#linear-gradient-10);stroke-width:0" d="M0 36.31h80v7.38H0z"/><path class="cls-5" d="M80 36.3s-3.27.49-6.23 4.21l.44-1.42s.95-1.29 1.03-1.33.88-.71.95-.77 1.35-.61 1.35-.61l1.61-.21.85.13zM67.07 43.69s3.16-.42 5.99-3.81v.64s-.75 1.33-.88 1.49-.98.94-1.13 1.06-1.46.58-1.46.58l-1.08.12-1.45-.06z"/><path d="M76.04 37.62c-.89.7-1.41 1.51-1.95 2.38s-.05.08-.08.13l-.09.14c-.56.9-1.15 1.83-2.17 2.63-2.38 1.87-4.69.79-4.69.79 1.43 0 2.91-.49 3.96-1.31.89-.7 1.41-1.51 1.95-2.38s.05-.08.08-.13l.09-.14c.56-.9 1.15-1.83 2.17-2.63 2.38-1.87 4.69-.8 4.69-.8-1.43 0-2.91.5-3.96 1.32z" style="fill:url(#linear-gradient-11);stroke-width:0"/><path class="cls-5" d="M70.42 36.3s-3.27.49-6.23 4.21l.44-1.42s.95-1.29 1.03-1.33.88-.71.95-.77 1.35-.61 1.35-.61l1.61-.21.85.13zM57.49 43.69s3.16-.42 5.99-3.81v.64s-.75 1.33-.88 1.49-.98.94-1.13 1.06-1.46.58-1.46.58l-1.08.12-1.45-.06z"/><path d="M66.46 37.62c-.89.7-1.41 1.51-1.95 2.38s-.05.08-.08.13l-.09.14c-.56.9-1.15 1.83-2.17 2.63-2.38 1.87-4.69.79-4.69.79 1.43 0 2.91-.49 3.96-1.31.89-.7 1.41-1.51 1.95-2.38s.05-.08.08-.13l.09-.14c.56-.9 1.15-1.83 2.17-2.63 2.38-1.87 4.69-.8 4.69-.8-1.43 0-2.91.5-3.96 1.32z" style="stroke-width:0;fill:url(#linear-gradient-12)"/><path class="cls-5" d="M60.84 36.3s-3.27.49-6.23 4.21l.44-1.42s.95-1.29 1.03-1.33.88-.71.95-.77 1.35-.61 1.35-.61l1.61-.21.85.13zM47.9 43.69s3.16-.42 5.99-3.81v.64s-.75 1.33-.88 1.49-.98.94-1.13 1.06-1.46.58-1.46.58l-1.08.12-1.45-.06z"/><path d="M56.88 37.62c-.89.7-1.41 1.51-1.95 2.38s-.05.08-.08.13l-.09.14c-.56.9-1.15 1.83-2.17 2.63-2.38 1.87-4.69.79-4.69.79 1.43 0 2.91-.49 3.96-1.31.89-.7 1.41-1.51 1.95-2.38s.05-.08.08-.13l.09-.14c.56-.9 1.15-1.83 2.17-2.63 2.38-1.87 4.69-.8 4.69-.8-1.43 0-2.91.5-3.96 1.32z" style="fill:url(#linear-gradient-13);stroke-width:0"/><g><path class="cls-5" d="M51.26 36.3s-3.27.49-6.23 4.21l.44-1.42s.95-1.29 1.03-1.33.88-.71.95-.77 1.35-.61 1.35-.61l1.61-.21.85.13zM38.32 43.69s3.16-.42 5.99-3.81v.64s-.75 1.33-.88 1.49-.98.94-1.13 1.06-1.46.58-1.46.58l-1.08.12-1.45-.06z"/><path d="M47.29 37.62c-.89.7-1.41 1.51-1.95 2.38s-.05.08-.08.13l-.09.14c-.56.9-1.15 1.83-2.17 2.63-2.38 1.87-4.69.79-4.69.79 1.43 0 2.91-.49 3.96-1.31.89-.7 1.41-1.51 1.95-2.38s.05-.08.08-.13l.09-.14c.56-.9 1.15-1.83 2.17-2.63 2.38-1.87 4.69-.8 4.69-.8-1.43 0-2.91.5-3.96 1.32z" style="fill:url(#linear-gradient-14);stroke-width:0"/></g><g><path class="cls-5" d="M41.68 36.3s-3.27.49-6.23 4.21l.44-1.42s.95-1.29 1.03-1.33.88-.71.95-.77 1.35-.61 1.35-.61l1.61-.21.85.13zM28.74 43.69s3.16-.42 5.99-3.81v.64s-.75 1.33-.88 1.49-.98.94-1.13 1.06-1.46.58-1.46.58l-1.08.12-1.45-.06z"/><path d="M37.71 37.62c-.89.7-1.41 1.51-1.95 2.38s-.05.08-.08.13l-.09.14c-.56.9-1.15 1.83-2.17 2.63-2.38 1.87-4.69.79-4.69.79 1.43 0 2.91-.49 3.96-1.31.89-.7 1.41-1.51 1.95-2.38s.05-.08.08-.13l.09-.14c.56-.9 1.15-1.83 2.17-2.63 2.38-1.87 4.69-.8 4.69-.8-1.43 0-2.91.5-3.96 1.32z" style="fill:url(#linear-gradient-15);stroke-width:0"/></g><g><path class="cls-5" d="M32.1 36.3s-3.27.49-6.23 4.21l.44-1.42s.95-1.29 1.03-1.33.88-.71.95-.77 1.35-.61 1.35-.61l1.61-.21.85.13zM19.16 43.69s3.16-.42 5.99-3.81v.64s-.75 1.33-.88 1.49-.98.94-1.13 1.06-1.46.58-1.46.58l-1.08.12-1.45-.06z"/><path d="M28.13 37.62c-.89.7-1.41 1.51-1.95 2.38s-.05.08-.08.13l-.09.14c-.56.9-1.15 1.83-2.17 2.63-2.38 1.87-4.69.79-4.69.79 1.43 0 2.91-.49 3.96-1.31.89-.7 1.41-1.51 1.95-2.38s.05-.08.08-.13l.09-.14c.56-.9 1.15-1.83 2.17-2.63 2.38-1.87 4.69-.8 4.69-.8-1.43 0-2.91.5-3.96 1.32z" style="fill:url(#linear-gradient-16);stroke-width:0"/></g><g><path class="cls-5" d="M22.51 36.3s-3.27.49-6.23 4.21l.44-1.42s.95-1.29 1.03-1.33.88-.71.95-.77 1.35-.61 1.35-.61l1.61-.21.85.13zM9.58 43.69s3.16-.42 5.99-3.81v.64s-.75 1.33-.88 1.49-.98.94-1.13 1.06-1.46.58-1.46.58l-1.08.12-1.45-.06z"/><path d="M18.55 37.62c-.89.7-1.41 1.51-1.95 2.38s-.05.08-.08.13l-.09.14c-.56.9-1.15 1.83-2.17 2.63-2.38 1.87-4.69.79-4.69.79 1.43 0 2.91-.49 3.96-1.31.89-.7 1.41-1.51 1.95-2.38s.05-.08.08-.13l.09-.14c.56-.9 1.15-1.83 2.17-2.63 2.38-1.87 4.69-.8 4.69-.8-1.43 0-2.91.5-3.96 1.32z" style="fill:url(#linear-gradient-17);stroke-width:0"/></g><g><path class="cls-5" d="M12.93 36.3s-3.27.49-6.23 4.21l.44-1.42s.95-1.29 1.03-1.33.88-.71.95-.77 1.35-.61 1.35-.61l1.61-.21.85.13zM0 43.69s3.16-.42 5.99-3.81v.64s-.75 1.33-.88 1.49-.98.94-1.13 1.06-1.46.58-1.46.58l-1.08.12L0 43.69z"/><path d="M8.97 37.62c-.89.7-1.41 1.51-1.95 2.38s-.05.08-.08.13l-.09.14c-.56.9-1.15 1.83-2.17 2.63-2.37 1.87-4.68.79-4.68.79 1.43 0 2.91-.49 3.96-1.31.89-.7 1.41-1.51 1.95-2.38s.05-.08.08-.13l.09-.14c.56-.9 1.15-1.83 2.17-2.63 2.38-1.87 4.69-.8 4.69-.8-1.43 0-2.91.5-3.96 1.32z" style="fill:url(#linear-gradient-18);stroke-width:0"/></g></g></svg>